<svg xmlns="http://www.w3.org/2000/svg" viewBox="0 0 500 500"><g id="freepik--background-complete--inject-2"><path d="M300.9,73.54c.67,21.92,12.41,43.56,30.59,56.41C328.53,110.38,316.94,85.51,300.9,73.54Z" style="fill:#ebebeb"></path><path d="M313.28,56.1c.57,18.71,10.58,37.18,26.1,48.14C336.86,87.54,327,66.32,313.28,56.1Z" style="fill:#ebebeb"></path><path d="M325.73,42.92a50.11,50.11,0,0,0,20.91,38.56C344.62,68.1,336.7,51.1,325.73,42.92Z" style="fill:#ebebeb"></path><path d="M386.66,104.62c-14.11,16.75-36.73,25.93-59,23.93C342.15,115.16,366.66,103.35,386.66,104.62Z" style="fill:#ebebeb"></path><path d="M387.76,82.71c-12,14.3-31.35,22.14-50.32,20.42C349.77,91.71,370.69,81.63,387.76,82.71Z" style="fill:#ebebeb"></path><path d="M386.16,64.09a47.76,47.76,0,0,1-40.31,16.36C355.73,71.3,372.48,63.23,386.16,64.09Z" style="fill:#ebebeb"></path><path d="M364.57,19.91c-11.54,12-18.14,34.8-14.87,51.47C363,57.13,369.41,37.21,364.57,19.91Z" style="fill:#ebebeb"></path><path d="M317.91,162.55c-.46-.17,7-23.12,16.73-51.26S352.58,60.46,353,60.63s-7,23.12-16.73,51.27S318.37,162.72,317.91,162.55Z" style="fill:#ebebeb"></path><path d="M459.48,46.5a5.16,5.16,0,0,0-1.14-2.9,5,5,0,0,0-2.48-1.78,4,4,0,0,0-4.57,1.77,4,4,0,0,0-4.2-2.21,5,5,0,0,0-2.71,1.43,5.18,5.18,0,0,0-1.52,2.72,6.33,6.33,0,0,0,.52,3.93,9,9,0,0,0,2.88,3.09c1.93,1.35,4.47,3,4.47,3s2.35-1.52,4.44-2.59a9.05,9.05,0,0,0,3.27-2.67A6.39,6.39,0,0,0,459.48,46.5Z" style="fill:#ebebeb"></path><path d="M412.16,206.56c-8.55,24.28-29.84,34.33-29.84,34.33C384.38,219.2,412.16,206.56,412.16,206.56Z" style="fill:#e0e0e0"></path><path d="M374,271.14c-13.49-8.22-17.31-23-17.31-23C369.32,252,374,271.14,374,271.14Z" style="fill:#e0e0e0"></path><path d="M351.81,243c6.58-17.79,23-25.73,23-25.73C373.23,233,351.81,243,351.81,243Z" style="fill:#e0e0e0"></path><path d="M399.89,243.34c0,.35-13.66,1.51-30.55,2.6s-30.62,1.67-30.64,1.32,13.66-1.51,30.56-2.6S399.87,243,399.89,243.34Z" style="fill:#e0e0e0"></path><path d="M440,235.32s-22.76,18.56-46.8,8C393.16,243.36,412.37,227.25,440,235.32Z" style="fill:#e0e0e0"></path><path d="M415.67,269.34s-29.33,1.33-42.36-21.44C373.31,247.9,398.33,246.41,415.67,269.34Z" style="fill:#e0e0e0"></path><path d="M209.54,468.83c-20-20.4-19.55-46.51-19.55-46.51C210.56,435,209.54,468.83,209.54,468.83Z" style="fill:#e0e0e0"></path><path d="M164,399.24c14.79-9.4,31.33-6,31.33-6C185.35,404,164,399.24,164,399.24Z" style="fill:#e0e0e0"></path><path d="M202.85,390.93c14.49,15.27,14.35,35.5,14.35,35.5C202.33,417.16,202.85,390.93,202.85,390.93Z" style="fill:#e0e0e0"></path><path d="M179,438.6c-.36-.15,5.18-14.33,12.38-31.67s13.33-31.29,13.69-31.14-5.18,14.33-12.38,31.68S179.31,438.75,179,438.6Z" style="fill:#e0e0e0"></path><path d="M167.3,482.41S160,450.66,182.23,431.9C182.23,431.9,188.84,458.9,167.3,482.41Z" style="fill:#e0e0e0"></path><path d="M145.34,441.57s13-29.84,42.09-31.65C187.43,409.92,176.65,435.55,145.34,441.57Z" style="fill:#e0e0e0"></path><path d="M79,130.38a13.58,13.58,0,0,0-3.89-7.16,13.06,13.06,0,0,0-7-3.79,10.52,10.52,0,0,0-11.26,6.07,10.6,10.6,0,0,0-3.32-3.21,10.72,10.72,0,0,0-8.3-1.14,13.07,13.07,0,0,0-6.55,4.57,13.64,13.64,0,0,0-3.05,7.56,16.46,16.46,0,0,0,2.63,10,23.34,23.34,0,0,0,8.47,7.07c5.43,2.86,12.57,6.43,12.57,6.43s5.59-4.71,10.66-8.17a23.35,23.35,0,0,0,7.61-8A16.5,16.5,0,0,0,79,130.38Z" style="fill:#ebebeb"></path><path d="M96.42,65.88a7.88,7.88,0,0,0-2.26-4.16,7.52,7.52,0,0,0-4.08-2.19,6.08,6.08,0,0,0-6.53,3.52,6.09,6.09,0,0,0-1.92-1.86,6.22,6.22,0,0,0-4.82-.67A7.7,7.7,0,0,0,73,63.17a7.87,7.87,0,0,0-1.77,4.39,9.51,9.51,0,0,0,1.52,5.81,13.51,13.51,0,0,0,4.92,4.1C80.83,79.13,85,81.2,85,81.2s3.24-2.73,6.19-4.74a13.66,13.66,0,0,0,4.41-4.63A9.62,9.62,0,0,0,96.42,65.88Z" style="fill:#ebebeb"></path><path d="M465.43,120.53a7.92,7.92,0,0,0-2.26-4.15,7.63,7.63,0,0,0-4.08-2.2,6.11,6.11,0,0,0-6.53,3.52,6.1,6.1,0,0,0-6.74-2.52,7.49,7.49,0,0,0-3.8,2.65,7.81,7.81,0,0,0-1.77,4.38,9.54,9.54,0,0,0,1.52,5.82,13.66,13.66,0,0,0,4.91,4.1c3.16,1.66,7.3,3.73,7.3,3.73s3.24-2.73,6.18-4.74a13.62,13.62,0,0,0,4.42-4.64A9.6,9.6,0,0,0,465.43,120.53Z" style="fill:#ebebeb"></path><path d="M133.29,437.3a5.16,5.16,0,0,0-1.14-2.9,5,5,0,0,0-2.49-1.78,4.12,4.12,0,0,0-3.18.41,4,4,0,0,0-1.38,1.36,4,4,0,0,0-4.21-2.21,5,5,0,0,0-2.7,1.43,5.11,5.11,0,0,0-1.52,2.72,6.26,6.26,0,0,0,.52,3.93,8.88,8.88,0,0,0,2.88,3.09c1.92,1.35,4.46,3,4.46,3s2.35-1.52,4.44-2.59a9,9,0,0,0,3.27-2.67A6.33,6.33,0,0,0,133.29,437.3Z" style="fill:#e0e0e0"></path><path d="M45.25,310.18a5.22,5.22,0,0,0-1.14-2.91,5,5,0,0,0-2.49-1.77,4,4,0,0,0-4.56,1.77A4,4,0,0,0,36,305.89a4.11,4.11,0,0,0-3.1-.83,5.07,5.07,0,0,0-2.7,1.42,5.17,5.17,0,0,0-1.52,2.73,6.33,6.33,0,0,0,.52,3.93A9,9,0,0,0,32,316.23c1.92,1.34,4.46,3,4.46,3s2.35-1.52,4.44-2.59A8.89,8.89,0,0,0,44.2,314,6.28,6.28,0,0,0,45.25,310.18Z" style="fill:#e0e0e0"></path><path d="M440.24,425.14a8.09,8.09,0,0,0-1.78-4.53,7.82,7.82,0,0,0-3.88-2.77,6.45,6.45,0,0,0-5,.63,6.35,6.35,0,0,0-2.15,2.13,6.27,6.27,0,0,0-6.57-3.44,7.82,7.82,0,0,0-4.22,2.22,8.1,8.1,0,0,0-2.37,4.25,9.84,9.84,0,0,0,.81,6.14,14.09,14.09,0,0,0,4.49,4.82c3,2.1,7,4.74,7,4.74s3.66-2.37,6.92-4a14,14,0,0,0,5.11-4.17A9.86,9.86,0,0,0,440.24,425.14Z" style="fill:#e0e0e0"></path></g><g id="freepik--Plants--inject-2"><path d="M210.22,185.35a3.4,3.4,0,0,1,0-.76c0-.55.08-1.27.13-2.17l.11-1.57c0-.58,0-1.2,0-1.87,0-1.34.09-2.87,0-4.55,0-.84-.08-1.73-.11-2.65s-.17-1.86-.26-2.85c-.14-2-.5-4.07-.84-6.27a84.93,84.93,0,0,0-9.71-27.18c-1.13-1.91-2.17-3.76-3.32-5.38-.56-.82-1.06-1.64-1.61-2.37L193,125.61c-1-1.37-2-2.5-2.87-3.54-.43-.51-.82-1-1.2-1.42l-1.08-1.14c-.61-.67-1.11-1.2-1.48-1.6a5.35,5.35,0,0,1-.49-.58,3.64,3.64,0,0,1,.57.5l1.55,1.54,1.11,1.11c.39.42.8.9,1.24,1.4.88,1,1.93,2.14,2.94,3.5l1.62,2.11c.56.74,1.08,1.55,1.65,2.37,1.16,1.62,2.23,3.46,3.38,5.38a89.44,89.44,0,0,1,6.09,13.24,90.36,90.36,0,0,1,3.68,14.1c.32,2.21.67,4.32.79,6.31.08,1,.2,2,.23,2.87s0,1.81.07,2.66c.09,1.69,0,3.23-.05,4.57,0,.67,0,1.3-.07,1.87s-.11,1.09-.16,1.57c-.09.9-.17,1.62-.23,2.17A3.55,3.55,0,0,1,210.22,185.35Z" style="fill:#263238"></path><path d="M127.13,84.49a8.9,8.9,0,0,0-6.14,5c-1.07,2.7-.39,5.78-1,8.62s-2.4,5.06-3,7.78c-1,4.51,1.52,9.33,5.4,11.84s8.8,3,13.37,2.26,8.87-2.55,13.12-4.35l14-12.12c-8-7.9-16.59-16.12-27.53-18.78A17,17,0,0,0,127.13,84.49Z" style="fill:#FF725E"></path><path d="M181.59,77.28c.65-4.58,1.6-9.18,1.12-13.77s-2.69-9.32-6.8-11.42c-5.19-2.66-12.43.33-14.23,5.88-3.38-1.14-7.61-1.78-10.09.79-2.7,2.79-1.48,7.39.07,10.95a115.49,115.49,0,0,0,13,22.34L182.25,91C180.61,86.65,180.94,81.85,181.59,77.28Z" style="fill:#FF725E"></path><g style="opacity:0.30000000000000004"><path d="M127.13,84.49a8.9,8.9,0,0,0-6.14,5c-1.07,2.7-.39,5.78-1,8.62s-2.4,5.06-3,7.78c-1,4.51,1.52,9.33,5.4,11.84s8.8,3,13.37,2.26,8.87-2.55,13.12-4.35l14-12.12c-8-7.9-16.59-16.12-27.53-18.78A17,17,0,0,0,127.13,84.49Z"></path></g><g style="opacity:0.30000000000000004"><path d="M181.59,77.28c.65-4.58,1.6-9.18,1.12-13.77s-2.69-9.32-6.8-11.42c-5.19-2.66-12.43.33-14.23,5.88-3.38-1.14-7.61-1.78-10.09.79-2.7,2.79-1.48,7.39.07,10.95a115.49,115.49,0,0,0,13,22.34L182.25,91C180.61,86.65,180.94,81.85,181.59,77.28Z"></path></g><path d="M141.46,104.73c-4.91-1.2-10.38-2.33-14.79.14a11.42,11.42,0,0,0-5.37,7.55,14.67,14.67,0,0,0,1.26,9.3c1.42,3,3.75,5.82,3.4,9.08-.25,2.27-1.81,4.25-2,6.53a7.29,7.29,0,0,0,3.57,6.46,15.38,15.38,0,0,0,7.39,2.05c9.19.61,18.36-2.38,26.25-7.13s14.63-11.17,20.92-17.9l3.28-5.36Z" style="fill:#FF725E"></path><path d="M189.52,108.91c4.87-6.52,9.42-13.38,12.32-21s4.07-16,2.11-23.94A13.64,13.64,0,0,0,201,57.87a6.44,6.44,0,0,0-6.18-2.1c-2,.53-3.43,2.19-5.36,2.76-2.79.82-5.63-.77-8.43-1.54a13,13,0,0,0-8.29.35A10,10,0,0,0,167,63.19c-1.47,4.22.37,8.8,2.17,12.88l16.16,36.53" style="fill:#FF725E"></path><path d="M184.75,112a125.57,125.57,0,0,0-14.91-34.72c-3.35-5.37-7.35-10.69-13.06-13.43-2.95-1.41-6.67-2-9.37-.15-4.49,3.05-3.54,10.46-7.59,14.05-2.2,1.95-5.49,2.37-7.59,4.44-2.27,2.23-2.57,5.85-1.84,9,1.18,5,4.61,9.28,8.77,12.3a47.18,47.18,0,0,0,13.94,6.43,113.48,113.48,0,0,0,31.19,5" style="fill:#FF725E"></path><path d="M187.68,117.77a35,35,0,0,1-6.37,7.46,4.42,4.42,0,0,1-1.59,1,1.67,1.67,0,0,1-1.76-.41,2.08,2.08,0,0,1,.2-2.39,7.06,7.06,0,0,0,1.3-2.2,4.09,4.09,0,0,0-2.14,0c-.72.1-1.61,0-1.9-.71a1.33,1.33,0,0,1,.32-1.38,3.42,3.42,0,0,1,1.28-.78,41.6,41.6,0,0,1,5-1.58,8.69,8.69,0,0,1-4.57-2.06,2.35,2.35,0,0,1-1-2,1.83,1.83,0,0,1,1.69-1.39,5.4,5.4,0,0,1,2.3.45,7,7,0,0,1-.37-4.39,1.92,1.92,0,0,1,.9-1.39,1.57,1.57,0,0,1,1.78.54,5.57,5.57,0,0,1,.87,1.8,3.3,3.3,0,0,0,1.07,1.65,18.64,18.64,0,0,1,1.55-4c.32-.6.75-1.25,1.43-1.35a1.59,1.59,0,0,1,1.6,1.5,4.57,4.57,0,0,1-.6,2.35,13.07,13.07,0,0,1,2.17-2.52,1.58,1.58,0,0,1,1.06-.52,1.14,1.14,0,0,1,1,1,3.29,3.29,0,0,1-.29,1.5,52.55,52.55,0,0,1-6.44,12.17" style="fill:#263238"></path><path d="M185.81,117a1.47,1.47,0,0,1-.49,0l-1.41,0c-1.22,0-3,0-5.17-.14s-4.77-.39-7.63-.81-6-1.07-9.2-1.91-6.24-1.87-8.94-2.89-5.08-2.09-7-3.06-3.52-1.8-4.56-2.43l-1.21-.72a2,2,0,0,1-.4-.28,1.46,1.46,0,0,1,.45.19l1.26.64c1.07.57,2.65,1.35,4.62,2.27s4.36,1.93,7,2.94,5.7,2,8.91,2.83,6.3,1.47,9.14,1.94,5.41.76,7.58.92,3.93.28,5.14.31l1.41.07A2.75,2.75,0,0,1,185.81,117Z" style="fill:#263238"></path><path d="M184.1,116.23a2,2,0,0,1-.16-.46c-.11-.36-.23-.81-.38-1.34-.31-1.17-.79-2.86-1.4-4.94-1.21-4.15-3.07-9.84-5.54-16S171.54,82,169.53,78.18c-1-1.92-1.83-3.47-2.42-4.53l-.66-1.23a1.77,1.77,0,0,1-.2-.44s.12.12.29.39l.74,1.18c.65,1,1.53,2.55,2.57,4.45a145.41,145.41,0,0,1,7.26,15.33,146.5,146.5,0,0,1,5.41,16.06c.56,2.1,1,3.8,1.23,5,.12.54.21,1,.29,1.37A1.46,1.46,0,0,1,184.1,116.23Z" style="fill:#263238"></path><path d="M188.05,83.46a5.31,5.31,0,0,1,.26,1.25c.14.82.28,2,.41,3.47a66.43,66.43,0,0,1-.08,11.51A65,65,0,0,1,186.53,111c-.4,1.42-.76,2.55-1.05,3.32a6.11,6.11,0,0,1-.49,1.19,6,6,0,0,1,.3-1.25c.22-.79.53-1.93.89-3.36a76.25,76.25,0,0,0,2.17-22.72c-.08-1.46-.17-2.65-.24-3.46A6.85,6.85,0,0,1,188.05,83.46Z" style="fill:#263238"></path><path d="M186.88,116a7.06,7.06,0,0,1-1.16.84c-.76.52-1.88,1.23-3.29,2.08-2.81,1.7-6.79,3.92-11.32,6.08s-8.76,3.86-11.85,5c-1.55.56-2.81,1-3.69,1.25a7.73,7.73,0,0,1-1.38.38,6.14,6.14,0,0,1,1.31-.57l3.63-1.4c3.05-1.2,7.24-2.94,11.76-5.1s8.5-4.31,11.35-5.93l3.38-1.93A7.38,7.38,0,0,1,186.88,116Z" style="fill:#263238"></path><path d="M163.46,92.94c.1-.1,5.46,4.9,12,11.17s11.69,11.45,11.59,11.55-5.45-4.89-12-11.17S163.36,93,163.46,92.94Z" style="fill:#263238"></path><path d="M233.79,78.53c-7.69-5.41-15.15-11.32-21.06-18.64S202.5,43.72,201.82,34.34a15.76,15.76,0,0,1,1-7.77,7.47,7.47,0,0,1,6-4.52c2.33-.11,4.55,1.18,6.88,1.11,3.35-.09,5.91-2.86,8.71-4.71a15,15,0,0,1,9.23-2.59,11.68,11.68,0,0,1,8.4,4.38c3.12,4.11,2.74,9.8,2.22,14.93q-2.33,23-4.66,45.93" style="fill:#FF725E"></path><path d="M249.11,84.81c7.28,4,14.86,7.65,23,9.51s16.81,1.86,24.53-1.23a14,14,0,0,0,5.77-3.83,6.63,6.63,0,0,0,1.25-6.55c-.81-1.89-2.7-3.16-3.55-5-1.22-2.7,0-5.8.38-8.74a13.33,13.33,0,0,0-1.53-8.34,10.31,10.31,0,0,0-6.73-5c-4.47-.89-8.84,1.61-12.72,4L244.79,81.12" style="fill:#FF725E"></path><path d="M287.81,36.07c-3.71-4.11-11.07-2.1-15.28-5.7-2.29-1.95-3.17-5.22-5.55-7-2.58-2-6.29-1.78-9.32-.6-4.9,1.9-8.74,6-11.21,10.6a48.34,48.34,0,0,0-4.54,15,115.47,115.47,0,0,0-.7,32.26l3,.06a127.93,127.93,0,0,0,33-20c5-4.14,9.79-8.93,11.75-15.09C290,42.39,290.06,38.55,287.81,36.07Z" style="fill:#FF725E"></path><path d="M239.43,82.49A35.67,35.67,0,0,1,231,77.1a4.69,4.69,0,0,1-1.27-1.47,1.72,1.72,0,0,1,.17-1.84,2.16,2.16,0,0,1,2.45-.13,7,7,0,0,0,2.41,1,4.1,4.1,0,0,0-.33-2.16c-.19-.72-.18-1.63.45-2a1.37,1.37,0,0,1,1.45.13,3.59,3.59,0,0,1,1,1.18,43,43,0,0,1,2.3,4.85A8.83,8.83,0,0,1,241,71.73a2.42,2.42,0,0,1,1.84-1.31,1.88,1.88,0,0,1,1.65,1.51,5.52,5.52,0,0,1-.13,2.39,7.11,7.11,0,0,1,4.39-1,2,2,0,0,1,1.53.71,1.63,1.63,0,0,1-.3,1.89,5.84,5.84,0,0,1-1.7,1.12,3.38,3.38,0,0,0-1.52,1.32,19,19,0,0,1,4.26,1c.65.23,1.37.58,1.56,1.25a1.62,1.62,0,0,1-1.29,1.84,4.74,4.74,0,0,1-2.46-.28A13.42,13.42,0,0,1,251.73,84a1.65,1.65,0,0,1,.67,1,1.17,1.17,0,0,1-.91,1.12,3.18,3.18,0,0,1-1.56-.08,54.06,54.06,0,0,1-13.22-4.79" style="fill:#263238"></path><path d="M241.48,79.72a1.32,1.32,0,0,1-.14.26l-.46.74-1.8,2.82c-.82,1.2-1.68,2.75-2.71,4.54-.51.89-1.09,1.83-1.63,2.87s-1.1,2.14-1.69,3.29c-1.24,2.28-2.32,4.92-3.6,7.69-.61,1.39-1.15,2.88-1.75,4.39l-.91,2.3c-.3.78-.54,1.59-.82,2.4a133.88,133.88,0,0,0-5.61,21.57c-.77,3.89-1.13,7.74-1.57,11.44-.2,3.73-.55,7.32-.46,10.75,0,1.71,0,3.39,0,5s.2,3.2.29,4.72c.05.76.09,1.51.14,2.24s.18,1.45.27,2.15c.18,1.41.35,2.75.51,4a36.93,36.93,0,0,0,.62,3.65l.62,3.24c.34,2,.87,3.74,1.22,5.15s.64,2.46.84,3.23l.2.85a1.09,1.09,0,0,1,.06.29s0-.09-.11-.27-.15-.49-.25-.84c-.23-.77-.54-1.84-.94-3.21a52.77,52.77,0,0,1-1.3-5.14c-.21-1-.43-2.09-.67-3.24s-.52-2.36-.66-3.65-.35-2.64-.54-4.05c-.09-.71-.19-1.43-.28-2.16s-.11-1.48-.16-2.25c-.1-1.53-.21-3.1-.32-4.73s0-3.31-.06-5c-.11-3.45.24-7.05.43-10.79.43-3.72.8-7.59,1.56-11.49a133.36,133.36,0,0,1,5.67-21.64c.29-.81.54-1.62.84-2.4l.92-2.31c.62-1.51,1.16-3,1.79-4.39,1.3-2.77,2.39-5.41,3.66-7.68l1.73-3.29c.55-1,1.15-2,1.66-2.86,1.06-1.78,1.95-3.32,2.8-4.5l1.89-2.77.5-.71A1.15,1.15,0,0,1,241.48,79.72Z" style="fill:#263238"></path><path d="M244.56,37a9.91,9.91,0,0,1-.28,1.75c-.22,1.11-.53,2.73-.89,4.73-.71,4-1.54,9.57-2.07,15.75s-.64,11.8-.61,15.87c0,2,0,3.67.07,4.81a10.5,10.5,0,0,1,0,1.77,11.05,11.05,0,0,1-.19-1.76c-.09-1.13-.18-2.78-.24-4.82a144.9,144.9,0,0,1,.46-15.92A143.12,143.12,0,0,1,243,43.41c.41-2,.77-3.6,1.05-4.71A13.1,13.1,0,0,1,244.56,37Z" style="fill:#263238"></path><path d="M278.58,59.66a10.69,10.69,0,0,1-1.15,1.15c-.75.71-1.89,1.71-3.32,2.9a99.45,99.45,0,0,1-11.89,8.43,99.39,99.39,0,0,1-13,6.61c-1.72.71-3.13,1.26-4.11,1.59a9.21,9.21,0,0,1-1.55.48,10.21,10.21,0,0,1,1.47-.67c1-.39,2.35-1,4.05-1.74A117.6,117.6,0,0,0,262,71.69a119.75,119.75,0,0,0,11.93-8.26c1.46-1.16,2.62-2.11,3.42-2.78A9,9,0,0,1,278.58,59.66Z" style="fill:#263238"></path><path d="M255.72,54.87c.06,0-.72,1.28-1.93,3.3s-2.86,4.83-4.51,8-3,6.15-4,8.3A36.79,36.79,0,0,1,243.73,78a3.46,3.46,0,0,1,.27-1c.21-.63.54-1.53,1-2.63.87-2.2,2.18-5.19,3.84-8.4s3.36-6,4.66-8c.65-1,1.2-1.77,1.59-2.3A3.9,3.9,0,0,1,255.72,54.87Z" style="fill:#263238"></path><path d="M273.13,81.89a4.07,4.07,0,0,1-1.07.27c-.7.14-1.72.29-3,.44a58.41,58.41,0,0,1-9.95.3,59.35,59.35,0,0,1-9.86-1.38c-1.25-.29-2.24-.55-2.92-.77a4.11,4.11,0,0,1-1-.38c0-.08,1.54.31,4,.79a74,74,0,0,0,9.82,1.22,73.66,73.66,0,0,0,9.89-.14C271.56,82,273.12,81.81,273.13,81.89Z" style="fill:#263238"></path><path d="M227.22,56.27c.08,0,.44,1.41,1.22,3.66A51,51,0,0,0,237.49,76C239,77.84,240,78.9,240,79a5.36,5.36,0,0,1-.8-.67c-.49-.45-1.17-1.14-2-2a44.19,44.19,0,0,1-5.44-7.61,43.44,43.44,0,0,1-3.68-8.6c-.35-1.14-.59-2.08-.72-2.74A3.75,3.75,0,0,1,227.22,56.27Z" style="fill:#263238"></path><path d="M415.83,359.69l-.37-.11-1.06-.37-4.06-1.5c-3.53-1.29-8.58-3.31-14.81-5.86a449.56,449.56,0,0,1-47.19-23.07C330.44,318.71,315,308.34,304,300.69c-5.53-3.83-10-7-13-9.2l-3.49-2.56-.9-.68c-.2-.15-.3-.24-.29-.25a1.35,1.35,0,0,1,.34.19l.94.62,3.57,2.44,13.13,9c11.12,7.54,26.59,17.82,44.46,27.88a488.72,488.72,0,0,0,47,23.23c6.19,2.61,11.21,4.71,14.71,6.08l4,1.63,1,.44C415.72,359.61,415.84,359.67,415.83,359.69Z" style="fill:#263238"></path><path d="M287.12,289c20.64-8.05,49.18-12.93,70.73-6.66A124.24,124.24,0,0,1,287.12,289" style="fill:#455a64"></path><path d="M310.75,304.79c20.63-8.06,49.18-12.93,70.72-6.66a124.2,124.2,0,0,1-70.72,6.66" style="fill:#455a64"></path><path d="M336.56,321.88c20.64-8.06,49.18-12.93,70.73-6.66a124.24,124.24,0,0,1-70.73,6.66" style="fill:#455a64"></path><path d="M361.68,336c21.62-5.53,50.65-7,71.18,1.78A125,125,0,0,1,361.68,336" style="fill:#455a64"></path><path d="M385.91,347.19c22.4,2.34,50,11,65.61,26.15a122.15,122.15,0,0,1-65.61-26.15" style="fill:#455a64"></path><path d="M375.08,342.17c14.38,17.65,28,43.89,28.39,66.6a124.76,124.76,0,0,1-28.39-66.6" style="fill:#455a64"></path><path d="M352,330.7c13.32,19.58,25.08,48.07,23.39,71.84A129.76,129.76,0,0,1,352,330.7" style="fill:#455a64"></path><path d="M324.59,314.24c13.32,19.58,25.08,48.07,23.39,71.84a129.76,129.76,0,0,1-23.39-71.84" style="fill:#455a64"></path><path d="M293.61,293.2C306.92,312.78,318.68,341.27,317,365a129.67,129.67,0,0,1-23.38-71.84" style="fill:#455a64"></path><path d="M337.43,299.34a3,3,0,0,1,.37-.5l1.14-1.38a28.16,28.16,0,0,1,1.9-2.1c.77-.79,1.61-1.73,2.66-2.65l1.61-1.47c.57-.51,1.2-1,1.83-1.51,1.24-1.07,2.68-2.06,4.18-3.14a73.81,73.81,0,0,1,10.42-5.89,74.73,74.73,0,0,1,11.3-4c1.79-.41,3.49-.84,5.11-1.07.81-.13,1.58-.29,2.34-.38l2.17-.24c1.38-.18,2.64-.2,3.75-.26s2.05-.06,2.83,0l1.79.05a2.5,2.5,0,0,1,.62.06,3.09,3.09,0,0,1-.62.05L389,275c-.77,0-1.72,0-2.82.12s-2.35.13-3.72.34l-2.15.27c-.75.1-1.52.27-2.32.4-1.61.26-3.29.7-5.07,1.12a75.44,75.44,0,0,0-11.21,4,76.7,76.7,0,0,0-10.36,5.8c-1.49,1.06-2.93,2-4.18,3.08-.63.52-1.27,1-1.84,1.48L343.75,293c-1.06.9-1.91,1.81-2.7,2.58s-1.44,1.46-2,2l-1.21,1.31A3.26,3.26,0,0,1,337.43,299.34Z" style="fill:#263238"></path><path d="M454.75,271.5a8.21,8.21,0,0,0,2.22-7c-.54-2.65-2.64-4.7-3.59-7.23s-.72-5.16-1.62-7.6c-1.51-4-5.95-6.48-10.25-6.45s-8.37,2.17-11.56,5.06-5.6,6.51-8,10.08l-4.68,16.55c10.27,2.06,21.14,4.08,31,.57A15.75,15.75,0,0,0,454.75,271.5Z" style="fill:#FF725E"></path><path d="M416.05,304.9c1.83,3.89,3.44,8,6.15,11.29s6.85,5.87,11.12,5.41c5.4-.58,9.5-6.6,8.08-11.83,3.21-.84,6.83-2.5,7.44-5.76.68-3.55-2.61-6.52-5.64-8.49a107.39,107.39,0,0,0-21.48-10.77l-13.17,9.83C412,297.11,414.23,301,416.05,304.9Z" style="fill:#FF725E"></path><g style="opacity:0.30000000000000004"><path d="M454.75,271.5a8.21,8.21,0,0,0,2.22-7c-.54-2.65-2.64-4.7-3.59-7.23s-.72-5.16-1.62-7.6c-1.51-4-5.95-6.48-10.25-6.45s-8.37,2.17-11.56,5.06-5.6,6.51-8,10.08l-4.68,16.55c10.27,2.06,21.14,4.08,31,.57A15.75,15.75,0,0,0,454.75,271.5Z"></path></g><g style="opacity:0.30000000000000004"><path d="M416.05,304.9c1.83,3.89,3.44,8,6.15,11.29s6.85,5.87,11.12,5.41c5.4-.58,9.5-6.6,8.08-11.83,3.21-.84,6.83-2.5,7.44-5.76.68-3.55-2.61-6.52-5.64-8.49a107.39,107.39,0,0,0-21.48-10.77l-13.17,9.83C412,297.11,414.23,301,416.05,304.9Z"></path></g><path d="M433.28,263.06c4.43-1.57,9.26-3.47,11.43-7.65a10.61,10.61,0,0,0,.33-8.62,13.68,13.68,0,0,0-5.73-6.59c-2.61-1.58-5.89-2.61-7.27-5.33-1-1.9-.77-4.23-1.77-6.1a6.8,6.8,0,0,0-6.07-3.21,14.35,14.35,0,0,0-6.8,2.17c-7.46,4.21-13.07,11.22-16.79,18.94s-5.69,16.16-7.15,24.6l.18,5.85Z" style="fill:#FF725E"></path><path d="M393.75,284.33c-.48,7.56-.51,15.22,1.11,22.61s5,14.57,10.57,19.72a12.63,12.63,0,0,0,5.41,3.25,6,6,0,0,0,5.87-1.52c1.25-1.4,1.55-3.45,2.77-4.88,1.75-2.06,4.77-2.27,7.34-3.1a12,12,0,0,0,6.27-4.5,9.36,9.36,0,0,0,1.48-7.48c-1-4-4.78-6.66-8.26-8.91L395.1,279.34" style="fill:#FF725E"></path><path d="M395.88,279.49a116.49,116.49,0,0,0,29.31,19.4c5.35,2.47,11.17,4.58,17,3.79,3-.4,6.2-1.85,7.37-4.66,1.94-4.66-2.58-9.94-1.26-14.81.72-2.64,3.06-4.64,3.64-7.32.63-2.9-1-5.86-3.14-7.91a20.39,20.39,0,0,0-13.09-5.09A43.88,43.88,0,0,0,421.59,265a105.66,105.66,0,0,0-26.84,12" style="fill:#FF725E"></path><path d="M389.25,274.89a32.54,32.54,0,0,1,1.16-9.05,4,4,0,0,1,.71-1.61,1.55,1.55,0,0,1,1.58-.58,2,2,0,0,1,1.06,2,6.47,6.47,0,0,0,.12,2.37,3.75,3.75,0,0,0,1.65-1.11,1.64,1.64,0,0,1,1.84-.42,1.27,1.27,0,0,1,.46,1.25,3.29,3.29,0,0,1-.6,1.25,37.4,37.4,0,0,1-3.1,3.79,8.06,8.06,0,0,1,4.61-.73,2.16,2.16,0,0,1,1.79,1,1.7,1.7,0,0,1-.6,2,5,5,0,0,1-2,.82,6.51,6.51,0,0,1,2.53,3.23,1.81,1.81,0,0,1,0,1.54,1.46,1.46,0,0,1-1.66.49,5.4,5.4,0,0,1-1.59-1,3.12,3.12,0,0,0-1.68-.74,17.83,17.83,0,0,1,.83,3.9,2.05,2.05,0,0,1-.43,1.78,1.48,1.48,0,0,1-2-.36,4.21,4.21,0,0,1-.73-2.13,12.2,12.2,0,0,1-.4,3.07,1.49,1.49,0,0,1-.56.95,1.07,1.07,0,0,1-1.28-.32,2.82,2.82,0,0,1-.54-1.31,49.34,49.34,0,0,1-1.21-12.76" style="fill:#263238"></path><path d="M392.49,276.12a12,12,0,0,1,1.43-1c.94-.65,2.33-1.52,4.09-2.53s3.92-2.14,6.36-3.27,5.19-2.21,8.13-3.21a87.45,87.45,0,0,1,8.44-2.31c2.63-.57,5-1,7-1.21s3.66-.39,4.8-.43a11.23,11.23,0,0,1,1.76,0,11.78,11.78,0,0,1-1.75.23c-1.13.11-2.75.3-4.76.6s-4.37.72-7,1.3-5.44,1.38-8.37,2.35-5.66,2.07-8.11,3.15-4.59,2.17-6.37,3.15-3.19,1.78-4.16,2.38A11.53,11.53,0,0,1,392.49,276.12Z" style="fill:#263238"></path><path d="M394.22,275.87a9.53,9.53,0,0,1,1.35,1.12c.84.75,2.07,1.82,3.61,3.12,3.07,2.61,7.41,6.09,12.46,9.6s9.83,6.36,13.34,8.33c1.76,1,3.19,1.76,4.19,2.28a12.22,12.22,0,0,1,1.52.88,12.74,12.74,0,0,1-1.61-.69c-1-.48-2.49-1.21-4.27-2.15a136.71,136.71,0,0,1-13.47-8.22,133.68,133.68,0,0,1-12.4-9.75c-1.51-1.34-2.71-2.46-3.51-3.25A11.43,11.43,0,0,1,394.22,275.87Z" style="fill:#263238"></path><path d="M407.87,303.39a5.43,5.43,0,0,1-.85-.84c-.52-.56-1.24-1.41-2.09-2.49A60.14,60.14,0,0,1,395,281.17c-.41-1.31-.7-2.38-.87-3.13a6.09,6.09,0,0,1-.22-1.17,4.84,4.84,0,0,1,.41,1.12c.23.73.58,1.78,1,3.06a70.62,70.62,0,0,0,9.9,18.79c.8,1.1,1.47,2,1.95,2.58A5.12,5.12,0,0,1,407.87,303.39Z" style="fill:#263238"></path><path d="M392.18,277.47a7.47,7.47,0,0,1,.47-1.24c.33-.79.84-1.92,1.5-3.3a118.51,118.51,0,0,1,5.7-10.52c2.42-4,4.85-7.47,6.69-9.91.92-1.22,1.69-2.2,2.24-2.85a6.71,6.71,0,0,1,.89-1,6.08,6.08,0,0,1-.73,1.11l-2.1,2.95c-1.76,2.49-4.13,6-6.55,10s-4.42,7.69-5.81,10.41l-1.65,3.22A5.4,5.4,0,0,1,392.18,277.47Z" style="fill:#263238"></path><path d="M422.16,283.46c0,.15-6.74-1-15-2.58s-14.94-2.95-14.91-3.09,6.75,1,15,2.58S422.19,283.32,422.16,283.46Z" style="fill:#263238"></path><path d="M415.51,184.45a2.54,2.54,0,0,1-.39.1l-1.16.24-4.48.88-3.23.62c-1.18.26-2.44.62-3.8,1-2.71.74-5.84,1.41-9.17,2.62L388,191.62c-1.83.62-3.67,1.45-5.6,2.21L379.47,195c-.5.2-1,.39-1.5.62l-1.49.71-6.16,3a157.71,157.71,0,0,0-47.64,37.23l-4.35,5.27c-.36.42-.71.85-1.05,1.27s-.65.87-1,1.3L314.45,247c-1.2,1.7-2.45,3.28-3.49,4.9s-2,3.2-3,4.69c-2,2.94-3.38,5.82-4.76,8.27-.66,1.24-1.32,2.37-1.85,3.45l-1.39,3-1.93,4.13c-.22.45-.39.81-.51,1.07s-.19.36-.19.36a2.06,2.06,0,0,1,.14-.38l.46-1.09c.44-1,1.06-2.38,1.85-4.18l1.34-3c.53-1.08,1.17-2.22,1.83-3.47,1.35-2.47,2.74-5.37,4.7-8.33.93-1.51,1.92-3.08,2.94-4.72s2.28-3.23,3.48-4.93l1.86-2.59c.32-.43.62-.88,1-1.31l1.05-1.28,4.35-5.29a155.64,155.64,0,0,1,47.78-37.35l6.19-2.95,1.5-.71c.49-.22,1-.41,1.5-.61l3-1.18c1.94-.75,3.78-1.57,5.62-2.18l5.29-1.72c3.35-1.19,6.5-1.84,9.22-2.55,1.37-.33,2.63-.69,3.81-.93l3.25-.58,4.5-.78,1.17-.19Z" style="fill:#263238"></path><path d="M412.23,185a27.2,27.2,0,0,1,11.93-11.63,49.15,49.15,0,0,1,16.17-4.76c4.67-.64,10.13-.59,13.22,3,2.66,3.08,2.53,7.6,2.25,11.65-.26,3.77-.91,8.18-4.25,9.95-1.92,1-4.24.82-6.4.55-12.7-1.64-21.43-3.08-32.92-8.73" style="fill:#FF725E"></path><path d="M455.63,181.42a12.43,12.43,0,0,1-1.64-.86,38.15,38.15,0,0,0-4.58-2.09,36.13,36.13,0,0,0-31.87,2.8,40.28,40.28,0,0,0-4.13,2.86,17.49,17.49,0,0,1-1.47,1.14,2.12,2.12,0,0,1,.33-.36c.23-.21.55-.55,1-.93a31.47,31.47,0,0,1,4.07-3,35.32,35.32,0,0,1,32.2-2.84,33.83,33.83,0,0,1,4.54,2.26c.52.3.89.58,1.16.75A2,2,0,0,1,455.63,181.42Z" style="fill:#263238"></path><path d="M451.12,170a15.41,15.41,0,0,1-9.28,6.2c-.06-.15,2.37-.93,4.93-2.66S451,169.85,451.12,170Z" style="fill:#263238"></path><path d="M372.17,200.08c8.94,7.95,23.15,10.76,33.66,5a28,28,0,0,0-33.66-5" style="fill:#455a64"></path><path d="M390.93,202.47a30,30,0,0,1-3.26-.58,73.51,73.51,0,0,0-15.85-1.32,30.19,30.19,0,0,1-3.31,0,2.8,2.8,0,0,1,.88-.18c.56-.08,1.39-.16,2.41-.23a56,56,0,0,1,8,.08,55.13,55.13,0,0,1,7.92,1.25c1,.23,1.8.45,2.35.62A3.05,3.05,0,0,1,390.93,202.47Z" style="fill:#263238"></path><path d="M373.17,154.17c11.69,5.23,27.12,3.53,36-5.68a29.95,29.95,0,0,0-36,5.68" style="fill:#455a64"></path><path d="M305.39,210.26s.14-.11.43-.29l1.28-.79c1.11-.7,2.81-1.65,4.91-3,4.24-2.66,10.26-6.72,17.36-12.18,3.55-2.72,7.33-5.85,11.32-9.29s8.11-7.27,12.31-11.45a323.59,323.59,0,0,0,25.63-28.72c17-21.46,30-42.59,39.22-57.95,4.59-7.7,8.21-14,10.71-18.33l2.88-5c.33-.55.58-1,.76-1.29s.28-.43.28-.43-.07.16-.23.46l-.72,1.32-2.79,5c-2.45,4.38-6,10.69-10.58,18.42C409,102.16,396,123.34,379,144.83a317,317,0,0,1-25.71,28.74c-4.21,4.18-8.39,8-12.36,11.44s-7.8,6.54-11.38,9.25a206.85,206.85,0,0,1-17.47,12.06c-2.12,1.35-3.84,2.28-5,3l-1.3.75Z" style="fill:#263238"></path><path d="M413.55,82.35a2.31,2.31,0,1,1-.76-3.17A2.3,2.3,0,0,1,413.55,82.35Z" style="fill:#263238"></path><path d="M418.83,77.35a2.31,2.31,0,1,1-.76-3.17A2.31,2.31,0,0,1,418.83,77.35Z" style="fill:#263238"></path><path d="M425.18,77.66a2.31,2.31,0,1,1-.76-3.17A2.3,2.3,0,0,1,425.18,77.66Z" style="fill:#263238"></path><path d="M419.29,84.71a2.31,2.31,0,1,1-.76-3.18A2.33,2.33,0,0,1,419.29,84.71Z" style="fill:#263238"></path><path d="M429.74,89.46a2.31,2.31,0,1,1-.76-3.17A2.31,2.31,0,0,1,429.74,89.46Z" style="fill:#263238"></path><path d="M423.18,96.54a2.31,2.31,0,1,1-.76-3.18A2.31,2.31,0,0,1,423.18,96.54Z" style="fill:#263238"></path><path d="M411.25,102.21a2.31,2.31,0,1,1-.76-3.17A2.29,2.29,0,0,1,411.25,102.21Z" style="fill:#263238"></path><path d="M433.58,84a2.31,2.31,0,1,1-.76-3.17A2.3,2.3,0,0,1,433.58,84Z" style="fill:#263238"></path><path d="M422.62,71.53a2.31,2.31,0,1,1-.76-3.17A2.3,2.3,0,0,1,422.62,71.53Z" style="fill:#263238"></path><path d="M426.84,83.42a2.31,2.31,0,1,1-.76-3.17A2.31,2.31,0,0,1,426.84,83.42Z" style="fill:#263238"></path><path d="M432.06,77.66a2.31,2.31,0,1,1-.76-3.18A2.32,2.32,0,0,1,432.06,77.66Z" style="fill:#263238"></path><path d="M428.38,66.2a2.31,2.31,0,1,1-.76-3.17A2.31,2.31,0,0,1,428.38,66.2Z" style="fill:#263238"></path><path d="M435.26,70.65a2.31,2.31,0,1,1-.76-3.18A2.32,2.32,0,0,1,435.26,70.65Z" style="fill:#263238"></path><path d="M429.2,72.72a2.31,2.31,0,1,1-.76-3.18A2.33,2.33,0,0,1,429.2,72.72Z" style="fill:#263238"></path><path d="M434.31,64.15a2.31,2.31,0,1,1-.76-3.18A2.32,2.32,0,0,1,434.31,64.15Z" style="fill:#263238"></path><path d="M411.75,89.25a2.31,2.31,0,1,1-.76-3.17A2.31,2.31,0,0,1,411.75,89.25Z" style="fill:#263238"></path><path d="M410.71,96.35a2.31,2.31,0,1,1-.76-3.18A2.32,2.32,0,0,1,410.71,96.35Z" style="fill:#263238"></path><path d="M417.46,93.31a2.31,2.31,0,1,1-.76-3.18A2.33,2.33,0,0,1,417.46,93.31Z" style="fill:#263238"></path><path d="M417.76,99.21A2.31,2.31,0,1,1,417,96,2.3,2.3,0,0,1,417.76,99.21Z" style="fill:#263238"></path><path d="M423.11,89.49a2.31,2.31,0,1,1-.75-3.18A2.31,2.31,0,0,1,423.11,89.49Z" style="fill:#263238"></path><path d="M387.79,130.38c7.59-13.19,7.42-31.63-2.41-43.25a35.6,35.6,0,0,0,2.41,43.25" style="fill:#455a64"></path><path d="M367.21,151.24c6.67-8.73,8.28-21.94,2.34-31.19a25.7,25.7,0,0,0-2.34,31.19" style="fill:#455a64"></path><path d="M396.51,126.71c12.48,2.87,27.28-1.78,34.22-12.55a30,30,0,0,0-34.22,12.55" style="fill:#455a64"></path><path d="M365.62,160.34c-.07,0,.24-1.35.66-3.52a81.52,81.52,0,0,0,1.18-8.53c.28-3.36.33-6.41.35-8.62a26.81,26.81,0,0,1,.09-3.58,3.83,3.83,0,0,1,.13,1c.06.62.11,1.51.15,2.62a76.72,76.72,0,0,1-.2,8.66,59.79,59.79,0,0,1-1.34,8.57c-.26,1.08-.49,1.95-.68,2.54A3,3,0,0,1,365.62,160.34Z" style="fill:#263238"></path><path d="M393.1,150.57c0,.08-1.34.18-3.51.44a79.13,79.13,0,0,0-8.41,1.43,82.3,82.3,0,0,0-8.21,2.32,34.69,34.69,0,0,1-3.36,1.12,3.26,3.26,0,0,1,.84-.45c.55-.27,1.37-.62,2.4-1a58.68,58.68,0,0,1,8.21-2.49,59.46,59.46,0,0,1,8.49-1.29c1.09-.08,2-.12,2.6-.12A3.25,3.25,0,0,1,393.1,150.57Z" style="fill:#263238"></path><path d="M415.9,119.43a29,29,0,0,1-3.53,1.22c-2.2.71-5.22,1.7-8.53,2.89s-6.27,2.36-8.41,3.21a27.91,27.91,0,0,1-3.5,1.31,4.07,4.07,0,0,1,.87-.49c.58-.29,1.43-.69,2.49-1.16,2.11-.94,5.06-2.16,8.37-3.36s6.38-2.13,8.6-2.75c1.12-.31,2-.54,2.65-.69A4,4,0,0,1,415.9,119.43Z" style="fill:#263238"></path><path d="M387.2,133.73a30.25,30.25,0,0,1,.14-3.29,72.76,72.76,0,0,0-.9-15.78,27.29,27.29,0,0,1-.5-3.25,2.74,2.74,0,0,1,.3.84c.16.54.35,1.34.56,2.34a53.78,53.78,0,0,1,.9,15.87c-.09,1-.2,1.84-.3,2.4A2.73,2.73,0,0,1,387.2,133.73Z" style="fill:#263238"></path><path d="M98.44,299.39a1.09,1.09,0,0,1,.29-.08l.83-.19,3.24-.68,2.34-.48c.86-.15,1.8-.26,2.81-.4,2-.24,4.32-.65,6.89-.74l4-.25c1.4-.08,2.86,0,4.37,0,3-.07,6.24.22,9.63.44a123.57,123.57,0,0,1,21.67,4.16A122.92,122.92,0,0,1,175,309.45c3,1.66,5.82,3.16,8.31,4.88,1.26.83,2.52,1.57,3.65,2.4l3.24,2.4c2.1,1.47,3.81,3.06,5.37,4.37.77.67,1.51,1.27,2.15,1.86l1.7,1.68,2.34,2.33.6.61c.13.14.2.22.19.23l-.23-.19-.63-.58-2.41-2.26-1.73-1.64c-.65-.58-1.39-1.16-2.17-1.82-1.57-1.28-3.29-2.85-5.4-4.3l-3.25-2.36c-1.13-.82-2.39-1.55-3.65-2.37-2.49-1.69-5.35-3.18-8.31-4.81a124,124,0,0,0-20.37-8.24,125.13,125.13,0,0,0-21.57-4.18c-3.37-.24-6.57-.54-9.59-.49-1.5,0-3-.07-4.35,0l-4,.22c-2.56.07-4.85.44-6.87.66-1,.13-1.95.22-2.81.35l-2.35.44-3.24.58-.85.14A1.1,1.1,0,0,1,98.44,299.39Z" style="fill:#263238"></path><path d="M100.8,298.9a19.64,19.64,0,0,0-11.12-4.66,35.38,35.38,0,0,0-12.15,1.09c-3.32.81-7,2.29-8.11,5.51-1,2.77.31,5.78,1.57,8.44,1.18,2.47,2.79,5.26,5.5,5.57A7.81,7.81,0,0,0,81,313.52c8.12-4.47,13.62-7.77,19.85-14.62" style="fill:#FF725E"></path><path d="M70.63,308a5.32,5.32,0,0,1,.73-1.12,22.75,22.75,0,0,1,2.45-2.75,25.41,25.41,0,0,1,22.48-6.65,22.36,22.36,0,0,1,3.54,1,5.35,5.35,0,0,1,1.23.54c0,.1-1.81-.65-4.84-1.15a26.34,26.34,0,0,0-22.16,6.56C71.79,306.47,70.71,308.07,70.63,308Z" style="fill:#263238"></path><path d="M70.62,299.09c.07-.14,1.7.69,3.88,1.15s4,.4,4,.56a8.09,8.09,0,0,1-4.13-.05A7.94,7.94,0,0,1,70.62,299.09Z" style="fill:#263238"></path><path d="M258.22,471.83c2.53-2,3.2-5.48,3.69-8.66q2.2-14.22,4.42-28.44l-4,.63a63.09,63.09,0,0,0-15.64,7.93c-4.71,3.48-8.71,8.14-10.6,13.69a9.85,9.85,0,0,0-.6,4.85,4.65,4.65,0,0,0,2.93,3.67c1.39.44,2.93,0,4.33.42,2,.59,3.11,2.66,4.51,4.21a9.3,9.3,0,0,0,5.16,3A7.29,7.29,0,0,0,258.22,471.83Z" style="fill:#FF725E"></path><path d="M296.74,459.48a8.26,8.26,0,0,0,2.69-4.55c.41-1.8.37-3.88,1.67-5.19.9-.92,2.28-1.25,3.16-2.18a4.11,4.11,0,0,0,.68-4.1,8.68,8.68,0,0,0-2.55-3.49,25.79,25.79,0,0,0-14.07-6,55.93,55.93,0,0,0-15.49.61l-3.32,1.22,15.65,20c1.75,2.24,3.76,4.65,6.57,5.1A6.44,6.44,0,0,0,296.74,459.48Z" style="fill:#FF725E"></path><path d="M270.15,476.1a8.37,8.37,0,0,0,5-1.65c1.49-1.09,2.83-2.67,4.68-2.81,1.28-.09,2.53.56,3.81.44a4.07,4.07,0,0,0,3.21-2.63,8.57,8.57,0,0,0,.38-4.3,25.76,25.76,0,0,0-6.62-13.8,56.13,56.13,0,0,0-12-9.75l-3.31-1.27q-.72,12.71-1.45,25.4c-.16,2.84-.23,6,1.59,8.16A6.43,6.43,0,0,0,270.15,476.1Z" style="fill:#FF725E"></path><g style="opacity:0.30000000000000004"><path d="M258.22,471.83c2.53-2,3.2-5.48,3.69-8.66q2.2-14.22,4.42-28.44l-4,.63a63.09,63.09,0,0,0-15.64,7.93c-4.71,3.48-8.71,8.14-10.6,13.69a9.85,9.85,0,0,0-.6,4.85,4.65,4.65,0,0,0,2.93,3.67c1.39.44,2.93,0,4.33.42,2,.59,3.11,2.66,4.51,4.21a9.3,9.3,0,0,0,5.16,3A7.29,7.29,0,0,0,258.22,471.83Z"></path><path d="M296.74,459.48a8.26,8.26,0,0,0,2.69-4.55c.41-1.8.37-3.88,1.67-5.19.9-.92,2.28-1.25,3.16-2.18a4.11,4.11,0,0,0,.68-4.1,8.68,8.68,0,0,0-2.55-3.49,25.79,25.79,0,0,0-14.07-6,55.93,55.93,0,0,0-15.49.61l-3.32,1.22,15.65,20c1.75,2.24,3.76,4.65,6.57,5.1A6.44,6.44,0,0,0,296.74,459.48Z"></path><path d="M270.15,476.1a8.37,8.37,0,0,0,5-1.65c1.49-1.09,2.83-2.67,4.68-2.81,1.28-.09,2.53.56,3.81.44a4.07,4.07,0,0,0,3.21-2.63,8.57,8.57,0,0,0,.38-4.3,25.76,25.76,0,0,0-6.62-13.8,56.13,56.13,0,0,0-12-9.75l-3.31-1.27q-.72,12.71-1.45,25.4c-.16,2.84-.23,6,1.59,8.16A6.43,6.43,0,0,0,270.15,476.1Z"></path></g><path d="M247.79,465c3.43-2.34,4.6-6.77,5.51-10.82l8.19-36.2-5.15.46c-7.25,2.15-14.44,4.76-20.81,8.82S223.6,437,220.69,444a12.71,12.71,0,0,0-1.2,6.19,6,6,0,0,0,3.45,5c1.74.69,3.77.27,5.53.92,2.53.93,3.77,3.69,5.43,5.82a12,12,0,0,0,6.37,4.32A9.33,9.33,0,0,0,247.79,465Z" style="fill:#FF725E"></path><path d="M300.25,448.25a10.76,10.76,0,0,0,3.29-6c.45-2.34.32-5,1.94-6.76,1.13-1.22,2.89-1.7,4-2.94a5.29,5.29,0,0,0,.72-5.31,11.24,11.24,0,0,0-3.42-4.39c-5.09-4.33-11.72-6.55-18.37-7.2s-13.36.17-19.94,1.38l-4.23,1.7L285.17,444c2.34,2.82,5,5.85,8.68,6.31A8.25,8.25,0,0,0,300.25,448.25Z" style="fill:#FF725E"></path><path d="M286.28,464.56c2.35-1.32,3.28-4.26,3.33-6.95.07-5.2-2.38-10.08-5.1-14.51a102.91,102.91,0,0,0-20.07-23.66l-2.3-.73a93.28,93.28,0,0,0-7.71,24.77,38.66,38.66,0,0,0-.37,12.6A17.94,17.94,0,0,0,259.89,467c2,1.68,4.78,2.79,7.26,1.93,2.28-.79,3.79-3.05,6-4C277.31,463.33,282.41,466.74,286.28,464.56Z" style="fill:#FF725E"></path><path d="M262.11,415.83a28.78,28.78,0,0,0-7.81,1.95,3.8,3.8,0,0,0-1.34.8,1.37,1.37,0,0,0-.34,1.44,1.71,1.71,0,0,0,1.83.73,5.56,5.56,0,0,1,2.1-.15,3.33,3.33,0,0,1-.8,1.56,1.44,1.44,0,0,0-.18,1.66,1.12,1.12,0,0,0,1.14.27,2.9,2.9,0,0,0,1-.65,33.79,33.79,0,0,0,3-3.11,7.19,7.19,0,0,0-.16,4.11,2,2,0,0,0,1.07,1.47,1.51,1.51,0,0,0,1.64-.74,4.2,4.2,0,0,0,.51-1.85,5.76,5.76,0,0,0,3.1,1.88,1.63,1.63,0,0,0,1.35-.15,1.29,1.29,0,0,0,.25-1.51,4.66,4.66,0,0,0-1-1.3,2.67,2.67,0,0,1-.83-1.39,15.3,15.3,0,0,0,3.51.32,1.82,1.82,0,0,0,1.51-.56,1.3,1.3,0,0,0-.52-1.72,3.68,3.68,0,0,0-1.94-.42,10.47,10.47,0,0,0,2.64-.68,1.28,1.28,0,0,0,.77-.58.93.93,0,0,0-.41-1.09,2.52,2.52,0,0,0-1.2-.34,43.27,43.27,0,0,0-11.31.28" style="fill:#263238"></path><path d="M219.84,373.89a2.16,2.16,0,0,1,.6.18l1.68.61c.73.27,1.62.61,2.62,1.09s2.17.94,3.38,1.62l1.93,1c.67.36,1.33.8,2,1.22,1.42.82,2.84,1.84,4.36,2.89A68.18,68.18,0,0,1,253,399.71c1,1.56,2,3,2.72,4.47.39.72.8,1.39,1.14,2.08l.95,2c.63,1.24,1.06,2.43,1.49,3.45a25.58,25.58,0,0,1,1,2.65l.55,1.71a2.79,2.79,0,0,1,.16.6,2.88,2.88,0,0,1-.26-.57c-.16-.43-.38-1-.64-1.67s-.6-1.61-1.06-2.61-.9-2.18-1.56-3.4l-1-1.94c-.34-.67-.76-1.34-1.16-2.05-.77-1.43-1.75-2.87-2.74-4.41a77.52,77.52,0,0,0-7.48-9.23,75.31,75.31,0,0,0-8.94-7.83c-1.49-1.05-2.89-2.09-4.29-2.92-.7-.42-1.35-.86-2-1.23l-1.9-1c-1.2-.7-2.35-1.2-3.33-1.69s-1.86-.87-2.57-1.16l-1.65-.7A4.49,4.49,0,0,1,219.84,373.89Z" style="fill:#263238"></path><path d="M286.18,444.83a7.56,7.56,0,0,1-.64-1.31c-.19-.43-.42-.95-.72-1.55s-.6-1.29-1-2a56.7,56.7,0,0,0-3-5,60,60,0,0,0-4.4-5.68,58.72,58.72,0,0,0-5.11-5,53.93,53.93,0,0,0-4.65-3.59c-.67-.5-1.32-.89-1.88-1.25s-1.05-.67-1.45-.9a7.13,7.13,0,0,1-1.23-.8,7.87,7.87,0,0,1,1.33.62c.42.21.93.48,1.5.83s1.24.71,1.94,1.19a48.77,48.77,0,0,1,4.75,3.53,52.16,52.16,0,0,1,5.19,5.07,54.36,54.36,0,0,1,4.41,5.76,47.7,47.7,0,0,1,2.93,5.14c.4.74.68,1.45,1,2.06s.48,1.15.64,1.59A7.62,7.62,0,0,1,286.18,444.83Z" style="fill:#263238"></path><path d="M253.77,455.63a7,7,0,0,1-.12-1.45c-.05-.93-.07-2.29,0-4a97.72,97.72,0,0,1,3.89-25.8c.48-1.61.9-2.9,1.22-3.77a6.49,6.49,0,0,1,.54-1.35,8.08,8.08,0,0,1-.35,1.41c-.26.89-.62,2.2-1.05,3.81a120.1,120.1,0,0,0-2.65,12.75,122.93,122.93,0,0,0-1.24,13c-.06,1.67-.1,3-.12,3.95A8.86,8.86,0,0,1,253.77,455.63Z" style="fill:#263238"></path><path d="M266.81,439.9a21.51,21.51,0,0,1-.67-2.82c-.37-1.75-.94-4.15-1.7-6.76s-1.58-4.94-2.2-6.61a21,21,0,0,1-1-2.74,13.08,13.08,0,0,1,1.3,2.6A59.58,59.58,0,0,1,266.51,437,13.36,13.36,0,0,1,266.81,439.9Z" style="fill:#263238"></path><path d="M289.58,423.83c0,.08-1.49-.5-3.91-1.28a66.53,66.53,0,0,0-19.47-3.21c-2.54,0-4.11.05-4.12,0a5.09,5.09,0,0,1,1.1-.16c.71-.08,1.74-.14,3-.16a55.25,55.25,0,0,1,9.94.72,56,56,0,0,1,9.65,2.5c1.2.44,2.16.82,2.8,1.12A4.76,4.76,0,0,1,289.58,423.83Z" style="fill:#263238"></path><path d="M236.39,437.44a5.82,5.82,0,0,1,.71-.92c.48-.58,1.21-1.38,2.15-2.33a58.26,58.26,0,0,1,8-6.73,57.62,57.62,0,0,1,9.1-5.17c1.22-.54,2.23-1,2.93-1.2a5.26,5.26,0,0,1,1.12-.34,5.52,5.52,0,0,1-1,.53c-.68.3-1.66.76-2.86,1.35a69.82,69.82,0,0,0-9,5.26,70.62,70.62,0,0,0-8.05,6.56c-1,.92-1.73,1.67-2.26,2.21A4.08,4.08,0,0,1,236.39,437.44Z" style="fill:#263238"></path><path d="M65.82,395.17a1.71,1.71,0,0,1,.3-.24l.93-.64,3.6-2.4c3.13-2.1,7.74-5,13.46-8.51a447.11,447.11,0,0,1,46.44-24.54c18.69-8.53,36.16-14.91,48.86-19.33,6.35-2.21,11.51-3.93,15.08-5.08l4.13-1.32,1.08-.33.37-.08-.35.16-1.05.39-4.08,1.45-15,5.31c-12.64,4.54-30.06,11-48.72,19.51a484.44,484.44,0,0,0-46.47,24.32c-5.76,3.46-10.41,6.28-13.58,8.3l-3.68,2.28-1,.57A1.48,1.48,0,0,1,65.82,395.17Z" style="fill:#263238"></path><path d="M198.78,332.81c-5.65,21.42-18.53,47.36-36.29,61.07a124.22,124.22,0,0,1,36.29-61.07" style="fill:#455a64"></path><path d="M172.09,342.59C166.44,364,153.56,390,135.8,403.66a124.22,124.22,0,0,1,36.29-61.07" style="fill:#455a64"></path><path d="M143.07,353.38c-5.65,21.43-18.52,47.36-36.28,61.07a124.25,124.25,0,0,1,36.28-61.07" style="fill:#455a64"></path><path d="M116.85,365.35c-8.27,20.73-24.2,45-43.37,56.47a125.1,125.1,0,0,1,43.37-56.47" style="fill:#455a64"></path><path d="M93.54,378.34c-15.08,16.73-38.37,34-59.77,37.62a122.14,122.14,0,0,1,59.77-37.62" style="fill:#455a64"></path><path d="M104,372.56c-22.73,1.22-52-3.22-70.54-16.29A124.57,124.57,0,0,1,104,372.56" style="fill:#455a64"></path><path d="M126.87,360.63c-23.66-.78-53.62-8.06-71.83-23.42a129.76,129.76,0,0,1,71.83,23.42" style="fill:#455a64"></path><path d="M156.29,348.21c-23.66-.78-53.61-8.06-71.83-23.42a129.76,129.76,0,0,1,71.83,23.42" style="fill:#455a64"></path><path d="M191.55,335.56c-23.66-.77-53.62-8.05-71.83-23.41a129.67,129.67,0,0,1,71.83,23.41" style="fill:#455a64"></path><path d="M317.61,378.89c7.68,3.14,15.68,5.73,22.31,10.84,2.48,1.91,5.11,4,5.93,7a5.93,5.93,0,0,1-.34,4.25,4.4,4.4,0,0,1-3.43,2.4c-2.24.17-4.12-1.6-5.66-3.24-6.55-7-12.26-14.33-18.81-21.3" style="fill:#455a64"></path><path d="M317.77,378.8c-5.22,4.36-8.5,12-10.64,18.41-.8,2.41-1.6,5-.78,7.44a4.84,4.84,0,0,0,2.16,2.7,3.52,3.52,0,0,0,3.39,0c1.59-.9,2-2.94,2.33-4.75,1.24-7.67,2.3-16.18,3.54-23.85" style="fill:#455a64"></path><path d="M332.93,411.91a95.64,95.64,0,0,1,11.39-3.17,31.66,31.66,0,0,1,11.76-.24,7.17,7.17,0,0,1,2.26.75,3,3,0,0,1,1.47,1.81,3,3,0,0,1-1,2.78,6.16,6.16,0,0,1-2.79,1.28,26.83,26.83,0,0,1-7.65.23A60.15,60.15,0,0,1,332.88,412" style="fill:#455a64"></path><path d="M384.76,412.36a27.37,27.37,0,0,1-3.1,2.44,37.86,37.86,0,0,1-9.64,4.73,40.11,40.11,0,0,1-15.8,1.84,45.09,45.09,0,0,1-32.78-19.19,32,32,0,0,1-3.77-7.66,38,38,0,0,1-1.57-7.28,76.45,76.45,0,0,1-.35-10.75c.05-1.24.09-2.22.12-2.92,0-.31,0-.56,0-.75l0-.26a1.33,1.33,0,0,1,0,.26c0,.19,0,.44,0,.76,0,.69,0,1.67,0,2.92a79.81,79.81,0,0,0,.48,10.71,39,39,0,0,0,1.61,7.2,31.28,31.28,0,0,0,3.76,7.55,45,45,0,0,0,32.49,19,40.21,40.21,0,0,0,15.67-1.73,39.25,39.25,0,0,0,9.64-4.58c1.05-.71,1.85-1.28,2.37-1.7l.61-.46Z" style="fill:#263238"></path><path d="M362.73,421a39,39,0,0,1,2.19-4.14,40.86,40.86,0,0,1,2.27-4.1,28.72,28.72,0,0,1-4.46,8.24Z" style="fill:#263238"></path><path d="M374.47,428.78a9.94,9.94,0,0,1-2.44-.47,29.19,29.19,0,0,1-10.64-5.42,9.88,9.88,0,0,1-1.81-1.7,24.54,24.54,0,0,1,2,1.46,37.48,37.48,0,0,0,5.05,3.12,36.93,36.93,0,0,0,5.48,2.25C373.56,428.49,374.48,428.72,374.47,428.78Z" style="fill:#263238"></path><path d="M347,439a10.75,10.75,0,0,1-.67-.86c-.43-.54-1.06-1.33-1.81-2.33a50,50,0,0,1-5.13-8.31,32.9,32.9,0,0,1-2.91-9.32c-.07-.61-.13-1.17-.2-1.68s0-.9,0-1.27a5.16,5.16,0,0,1,0-1.09,5.82,5.82,0,0,1,.13,1.08c0,.37.07.79.1,1.26s.17,1.06.26,1.66a36.14,36.14,0,0,0,3,9.18,59,59,0,0,0,5,8.31l1.71,2.42A3.27,3.27,0,0,1,347,439Z" style="fill:#263238"></path><path d="M390.24,412.64a5.58,5.58,0,1,1-2.79-5.54A5.58,5.58,0,0,1,390.24,412.64Z" style="fill:#FF725E"></path><path d="M350.75,439a5.58,5.58,0,1,1-1.36-6A5.59,5.59,0,0,1,350.75,439Z" style="fill:#FF725E"></path><path d="M380.33,429.14a5.58,5.58,0,1,1-2.79-5.53A5.58,5.58,0,0,1,380.33,429.14Z" style="fill:#FF725E"></path><path d="M373.26,410.4a4.54,4.54,0,0,1-6.88,3.47,4.49,4.49,0,0,1-2.15-4.27,4.53,4.53,0,0,1,9,.8Z" style="fill:#FF725E"></path><path d="M324.4,403.18c-3.52,7.56-3.7,18.08-3.19,26.7.2,3.22.47,6.7,2.32,9.17a5.36,5.36,0,0,0,3.35,2.2,3.64,3.64,0,0,0,3.5-1.5c1.25-1.81.85-4.44.39-6.71-1.95-9.64-4.43-20.22-6.37-29.86" style="fill:#455a64"></path><path d="M169.87,228.82c-5.82-5.92-12.14-11.46-16.22-18.77-1.52-2.73-3.1-5.72-2.66-8.82a5.9,5.9,0,0,1,2-3.77,4.35,4.35,0,0,1,4.09-.85c2.13.73,3.15,3.1,3.92,5.21,3.26,9,5.6,18,8.87,27" style="fill:#455a64"></path><path d="M169.69,228.84c6.51-1.94,12.53-7.63,17-12.71,1.69-1.9,3.46-4,3.66-6.52a4.88,4.88,0,0,0-.92-3.34,3.56,3.56,0,0,0-3.1-1.39c-1.82.2-3,1.9-4,3.45-4.16,6.55-8.5,13.95-12.66,20.51" style="fill:#455a64"></path><path d="M168.84,192.43a92.21,92.21,0,0,1-11.72-1.59,31.34,31.34,0,0,1-10.89-4.42,7.14,7.14,0,0,1-1.79-1.58,2.7,2.7,0,0,1,1.39-4.4,6.13,6.13,0,0,1,3.07-.07,26.56,26.56,0,0,1,7.12,2.81,60.07,60.07,0,0,1,12.91,9.16" style="fill:#455a64"></path><path d="M121.4,171.54a27.42,27.42,0,0,1,3.81-1,37.82,37.82,0,0,1,10.73-.54,40,40,0,0,1,15.23,4.55,45.07,45.07,0,0,1,22.54,30.58,31.54,31.54,0,0,1,.44,8.53,38.7,38.7,0,0,1-1.43,7.3,75.44,75.44,0,0,1-3.93,10l-1.26,2.64-.34.68a1.41,1.41,0,0,1-.13.23s0-.09.09-.25.18-.41.3-.7l1.19-2.67a83,83,0,0,0,3.79-10,38.77,38.77,0,0,0,1.36-7.25,31.66,31.66,0,0,0-.46-8.43A45.08,45.08,0,0,0,151,174.89a40.27,40.27,0,0,0-15.08-4.6,39.61,39.61,0,0,0-10.67.4c-1.24.24-2.21.45-2.85.62l-.74.19A1.15,1.15,0,0,1,121.4,171.54Z" style="fill:#263238"></path><path d="M145.07,172.27a39.78,39.78,0,0,1-3.65,2.95,36.22,36.22,0,0,1-3.71,2.86,19.21,19.21,0,0,1,3.45-3.2A19.5,19.5,0,0,1,145.07,172.27Z" style="fill:#263238"></path><path d="M137.35,160.52a10.66,10.66,0,0,1,2.05,1.4A29.29,29.29,0,0,1,147,171.1a10,10,0,0,1,1,2.28c-.06,0-.48-.82-1.26-2.13a37.91,37.91,0,0,0-3.4-4.86,38.44,38.44,0,0,0-4.15-4.24A20.82,20.82,0,0,1,137.35,160.52Z" style="fill:#263238"></path><path d="M166.62,162s.09.38.28,1.05.45,1.64.74,2.86a49.23,49.23,0,0,1,1.42,9.66,33,33,0,0,1-1,9.71c-.18.58-.34,1.13-.48,1.62L167.1,188a5.07,5.07,0,0,1-.46,1,4.82,4.82,0,0,1,.3-1.05c.12-.35.26-.75.41-1.2s.26-1,.41-1.62a35.85,35.85,0,0,0,.88-9.62,58,58,0,0,0-1.3-9.61c-.24-1.15-.45-2.12-.61-2.89A3.38,3.38,0,0,1,166.62,162Z" style="fill:#263238"></path><path d="M116.48,169.13a5.58,5.58,0,1,1,.37,6.18A5.58,5.58,0,0,1,116.48,169.13Z" style="fill:#FF725E"></path><path d="M163.15,160.55a5.58,5.58,0,1,1-1.14,6.09A5.58,5.58,0,0,1,163.15,160.55Z" style="fill:#FF725E"></path><path d="M132.1,157.88a5.58,5.58,0,1,1,.38,6.18A5.59,5.59,0,0,1,132.1,157.88Z" style="fill:#FF725E"></path><path d="M131.19,177.89a4.54,4.54,0,0,1,7.69-.47,4.48,4.48,0,0,1,.29,4.77,4.53,4.53,0,0,1-8-4.3Z" style="fill:#FF725E"></path><path d="M173.23,203.83c6.21-5.56,10.53-15.15,13.47-23.28,1.1-3,2.21-6.34,1.49-9.34a5.31,5.31,0,0,0-2.21-3.34,3.61,3.61,0,0,0-3.8,0c-1.86,1.16-2.54,3.73-3,6-2,9.63-3.92,20.33-5.94,30" style="fill:#455a64"></path><path d="M132.47,241.48c7.52-12,8-29.09-.69-40.22a33.08,33.08,0,0,0,.69,40.22" style="fill:#455a64"></path><path d="M183.36,324.15s-.09-.17-.24-.51-.38-.86-.66-1.52c-.6-1.32-1.38-3.33-2.56-5.83-2.25-5.05-5.76-12.25-10.64-20.84-2.43-4.31-5.26-8.92-8.41-13.81s-6.7-10-10.62-15.2A358.54,358.54,0,0,0,122.77,234c-20.85-21.84-41.94-39.33-57.32-51.74-7.71-6.19-14-11.12-18.39-14.51l-5-3.91-1.3-1-.43-.37.46.33,1.33,1,5.09,3.84c4.4,3.34,10.75,8.22,18.49,14.38,15.45,12.34,36.59,29.8,57.47,51.67a351.51,351.51,0,0,1,27.46,32.5c3.92,5.25,7.41,10.39,10.6,15.26s6,9.53,8.37,13.85a232.62,232.62,0,0,1,10.51,20.95c1.15,2.52,1.9,4.53,2.47,5.87.26.67.47,1.18.61,1.54S183.36,324.15,183.36,324.15Z" style="fill:#263238"></path><path d="M60.18,186.33a2.55,2.55,0,1,1-3.58.35A2.55,2.55,0,0,1,60.18,186.33Z" style="fill:#263238"></path><path d="M55.53,179.8a2.55,2.55,0,1,1-3.58.35A2.54,2.54,0,0,1,55.53,179.8Z" style="fill:#263238"></path><path d="M56.84,172.91a2.55,2.55,0,1,1-3.58.34A2.53,2.53,0,0,1,56.84,172.91Z" style="fill:#263238"></path><path d="M63.64,180.43a2.55,2.55,0,1,1-3.59.34A2.55,2.55,0,0,1,63.64,180.43Z" style="fill:#263238"></path><path d="M70.44,169.74a2.55,2.55,0,1,1-3.59.34A2.55,2.55,0,0,1,70.44,169.74Z" style="fill:#263238"></path><path d="M77.16,178a2.54,2.54,0,1,1-3.58.34A2.53,2.53,0,0,1,77.16,178Z" style="fill:#263238"></path><path d="M81.53,191.89a2.55,2.55,0,1,1-3.58.35A2.55,2.55,0,0,1,81.53,191.89Z" style="fill:#263238"></path><path d="M65.06,164.7a2.55,2.55,0,1,1-3.59.34A2.54,2.54,0,0,1,65.06,164.7Z" style="fill:#263238"></path><path d="M49.75,174.77a2.54,2.54,0,1,1-3.58.34A2.53,2.53,0,0,1,49.75,174.77Z" style="fill:#263238"></path><path d="M63.39,172a2.55,2.55,0,1,1-3.58.35A2.54,2.54,0,0,1,63.39,172Z" style="fill:#263238"></path><path d="M57.89,165.39a2.54,2.54,0,1,1-3.58.34A2.54,2.54,0,0,1,57.89,165.39Z" style="fill:#263238"></path><path d="M44.81,167.66a2.54,2.54,0,1,1-3.59.34A2.54,2.54,0,0,1,44.81,167.66Z" style="fill:#263238"></path><path d="M50.72,160.81a2.55,2.55,0,1,1-3.58.35A2.55,2.55,0,0,1,50.72,160.81Z" style="fill:#263238"></path><path d="M52.05,167.76a2.55,2.55,0,1,1-3.58.34A2.54,2.54,0,0,1,52.05,167.76Z" style="fill:#263238"></path><path d="M43.47,160.86a2.54,2.54,0,1,1-3.58.34A2.54,2.54,0,0,1,43.47,160.86Z" style="fill:#263238"></path><path d="M67.45,189.36a2.55,2.55,0,1,1-3.59.35A2.56,2.56,0,0,1,67.45,189.36Z" style="fill:#263238"></path><path d="M75,191.59a2.55,2.55,0,1,1-3.58.34A2.54,2.54,0,0,1,75,191.59Z" style="fill:#263238"></path><path d="M72.75,183.75a2.55,2.55,0,1,1-3.58.34A2.54,2.54,0,0,1,72.75,183.75Z" style="fill:#263238"></path><path d="M79.26,184.32a2.55,2.55,0,1,1-3.59.35A2.56,2.56,0,0,1,79.26,184.32Z" style="fill:#263238"></path><path d="M69.45,177a2.55,2.55,0,1,1-3.59.34A2.54,2.54,0,0,1,69.45,177Z" style="fill:#263238"></path><path d="M108.71,221.86c-13.25-10.32-33.42-13-47.62-4a39.3,39.3,0,0,0,47.62,4" style="fill:#455a64"></path><path d="M128.36,247.55c-8.52-8.63-22.72-12.42-33.73-7.35a28.39,28.39,0,0,0,33.73,7.35" style="fill:#455a64"></path><path d="M106,211.76c5.06-13.19,2.24-30.08-8.46-39.32A33.09,33.09,0,0,0,106,211.76" style="fill:#455a64"></path><path d="M138.06,250.68c0,.07-1.44-.48-3.74-1.28a90.18,90.18,0,0,0-9.14-2.61c-3.63-.82-7-1.34-9.37-1.69l-2.86-.42a4.23,4.23,0,0,1-1-.21,3.93,3.93,0,0,1,1.06,0c.68,0,1.67.12,2.89.25a87.44,87.44,0,0,1,9.43,1.55,66.3,66.3,0,0,1,9.15,2.78c1.14.44,2.06.83,2.68,1.12A3.92,3.92,0,0,1,138.06,250.68Z" style="fill:#263238"></path><path d="M131.59,219.15c.09,0,0,1.5-.07,3.91a87.32,87.32,0,0,0,.26,9.41,89.43,89.43,0,0,0,1.29,9.32c.46,2.37.8,3.83.72,3.85a4.34,4.34,0,0,1-.35-1c-.2-.65-.45-1.6-.73-2.78a67.23,67.23,0,0,1-1.45-9.36,66.55,66.55,0,0,1-.11-9.47c.07-1.21.16-2.18.26-2.86A4.12,4.12,0,0,1,131.59,219.15Z" style="fill:#263238"></path><path d="M101.06,189.46a4,4,0,0,1,.26,1.08c.14.81.31,1.8.52,3,.43,2.5,1,6,1.84,9.76s1.62,7.22,2.23,9.69c.28,1.15.51,2.12.71,2.93a5,5,0,0,1,.2,1.09,4,4,0,0,1-.4-1c-.22-.68-.52-1.66-.87-2.89-.7-2.45-1.58-5.86-2.38-9.67s-1.35-7.29-1.69-9.82c-.17-1.26-.3-2.28-.36-3A5.16,5.16,0,0,1,101.06,189.46Z" style="fill:#263238"></path><path d="M112.28,223a34.93,34.93,0,0,1-3.57-.67,80,80,0,0,0-8.65-1.2,81.77,81.77,0,0,0-8.73-.24c-2.24,0-3.62.15-3.63.07a3.49,3.49,0,0,1,1-.19c.62-.09,1.53-.18,2.65-.25A60.62,60.62,0,0,1,108.79,222c1.1.26,2,.5,2.58.69A3.8,3.8,0,0,1,112.28,223Z" style="fill:#263238"></path><path d="M73.46,274.75a2.54,2.54,0,1,1-1.86,3.08A2.55,2.55,0,0,1,73.46,274.75Z" style="fill:#263238"></path><path d="M65.45,274.59a2.54,2.54,0,1,1-1.86,3.08A2.54,2.54,0,0,1,65.45,274.59Z" style="fill:#263238"></path><path d="M60.7,269.43a2.54,2.54,0,1,1-1.86,3.08A2.54,2.54,0,0,1,60.7,269.43Z" style="fill:#263238"></path><path d="M70.79,268.45a2.55,2.55,0,1,1-1.87,3.09A2.55,2.55,0,0,1,70.79,268.45Z" style="fill:#263238"></path><path d="M66.26,256.62a2.54,2.54,0,1,1-1.86,3.08A2.55,2.55,0,0,1,66.26,256.62Z" style="fill:#263238"></path><path d="M76.89,256.14A2.54,2.54,0,1,1,75,259.22,2.54,2.54,0,0,1,76.89,256.14Z" style="fill:#263238"></path><path d="M90.66,260.93A2.54,2.54,0,1,1,88.8,264,2.53,2.53,0,0,1,90.66,260.93Z" style="fill:#263238"></path><path d="M59,257.93A2.55,2.55,0,1,1,57.15,261,2.55,2.55,0,0,1,59,257.93Z" style="fill:#263238"></path><path d="M58,276.22a2.55,2.55,0,1,1-1.86,3.09A2.55,2.55,0,0,1,58,276.22Z" style="fill:#263238"></path><path d="M63.86,263.61A2.55,2.55,0,1,1,62,266.7,2.55,2.55,0,0,1,63.86,263.61Z" style="fill:#263238"></path><path d="M55.28,264.1a2.55,2.55,0,1,1-1.86,3.08A2.55,2.55,0,0,1,55.28,264.1Z" style="fill:#263238"></path><path d="M49.3,276A2.55,2.55,0,1,1,47.44,279,2.56,2.56,0,0,1,49.3,276Z" style="fill:#263238"></path><path d="M47.34,267.13a2.54,2.54,0,1,1-1.86,3.08A2.54,2.54,0,0,1,47.34,267.13Z" style="fill:#263238"></path><path d="M42.19,273a2.54,2.54,0,1,1-1.86,3.08A2.55,2.55,0,0,1,42.19,273Z" style="fill:#263238"></path><path d="M53.71,270.2a2.54,2.54,0,1,1-1.86,3.08A2.53,2.53,0,0,1,53.71,270.2Z" style="fill:#263238"></path><path d="M80.23,270.73a2.54,2.54,0,1,1-1.86,3.08A2.53,2.53,0,0,1,80.23,270.73Z" style="fill:#263238"></path><path d="M86.55,266A2.54,2.54,0,1,1,84.68,269,2.54,2.54,0,0,1,86.55,266Z" style="fill:#263238"></path><path d="M78.89,263.12A2.54,2.54,0,1,1,77,266.2,2.54,2.54,0,0,1,78.89,263.12Z" style="fill:#263238"></path><path d="M83.23,258.24a2.54,2.54,0,1,1-1.87,3.08A2.55,2.55,0,0,1,83.23,258.24Z" style="fill:#263238"></path><path d="M71.48,261.73a2.55,2.55,0,1,1-1.86,3.08A2.55,2.55,0,0,1,71.48,261.73Z" style="fill:#263238"></path><path d="M143.93,257.84a2.25,2.25,0,0,1-.57,0l-1.62,0c-1.41,0-3.46,0-6,.07a177.34,177.34,0,0,0-39,5.29c-2.44.62-4.42,1.14-5.78,1.53l-1.57.42a2.08,2.08,0,0,1-.56.11,2.34,2.34,0,0,1,.53-.21l1.55-.52c1.34-.44,3.3-1,5.74-1.68a155.37,155.37,0,0,1,39.07-5.31c2.53,0,4.58,0,6,.09l1.63.09A2.05,2.05,0,0,1,143.93,257.84Z" style="fill:#263238"></path></g><g id="freepik--Womb--inject-2"><path d="M316.55,109.27s-35-16.86-66.29-2.52-45.81,48.44-53.92,65-45.34,67.9-52.55,95.7C135.9,297.84,133.1,324.74,162,365c31,43.31,91.62,48.28,119.58,37.9,33.61-12.48,52.36-46.25,62.47-73.88,14.62-39.95,22.23-98,18.07-121.94S353.6,128.05,316.55,109.27Z" style="fill:#ffbf9d"></path><path d="M314.55,111.92s-33-15.61-63.09-1.85S207.07,160.12,199.29,176s-42.48,65.11-50.64,91.41c-7.49,24.12-11.46,65.74,23.78,97.58s76.7,36.17,104.09,31.26c33.84-6.07,54.71-42.87,64.4-69.36,14-38.32,21.32-94,17.33-116.94S350.07,129.93,314.55,111.92Z" style="fill:#FF725E"></path><g style="opacity:0.30000000000000004"><path d="M288.67,101.62s-3.89,10.23-.55,14.34a82,82,0,0,1,23.36,6.16c32.41,16.45,35.67,69.65,39.1,91s-3.83,73.38-17.07,109.27c-9.16,24.81-29.49,60.79-61.83,64.83-25.45,3.18-46.36-2.8-78.48-32.11C158.94,323.85,167.44,281,173.43,256s24.37-58,31.66-72.91,20.83-48.88,48.53-62a60.29,60.29,0,0,1,26.11-5.56c1.92-2.63-.29-10.31-3.69-14.47C276,101,285.71,100.74,288.67,101.62Z"></path></g><path d="M287.84,115.32c0-.15,2.57-.13,7.36.64a81.51,81.51,0,0,1,8.75,2c1.71.49,3.53,1.06,5.46,1.78a24.15,24.15,0,0,1,3,1.24c1,.54,2,1,3,1.65a49.43,49.43,0,0,1,11.8,10.06,70.8,70.8,0,0,1,10,15.43c5.82,11.88,9.73,26.47,12.42,42.68.69,4.05,1.31,8.21,1.91,12.45.31,2.12.62,4.25.93,6.41.17,1.07.33,2.15.5,3.23s.29,2.26.44,3.39l.21,1.72.11,1.72c.06,1.15.13,2.31.2,3.47,0,2.31.11,4.65,0,7q-.13,7.05-.76,14.29c-.81,9.66-2.14,19.58-3.92,29.73s-4,20.53-6.92,31c-.75,2.62-1.44,5.27-2.29,7.9s-1.62,5.3-2.57,7.93c-1.76,5.31-3.86,10.6-6.19,15.84a142.68,142.68,0,0,1-17.85,30.31,84.66,84.66,0,0,1-12.78,13.12,56.7,56.7,0,0,1-16.34,9.44A48.86,48.86,0,0,1,275,392.1a83.68,83.68,0,0,1-9.52.58,91.34,91.34,0,0,1-19-1.67,89,89,0,0,1-18.24-5.74,110.34,110.34,0,0,1-16.47-9l-3.86-2.58L204.14,371c-2.51-1.78-4.8-3.78-7.18-5.67s-4.56-4-6.83-5.94l-3.3-3.17-3.11-3.33a77.52,77.52,0,0,1-16.85-31.22,90.5,90.5,0,0,1-2.85-17,115.51,115.51,0,0,1,.07-16.75,192.84,192.84,0,0,1,5.46-31.48A184.9,184.9,0,0,1,179.63,228c3.85-8.89,8-17.26,12-25.23s8.15-15.53,11.69-22.82,6.93-14.43,10.63-20.88a136.86,136.86,0,0,1,11.68-17.48,92.27,92.27,0,0,1,12.8-13.15l3.29-2.54a15.16,15.16,0,0,1,1.65-1.14l1.65-1.06a55,55,0,0,1,6.42-3.6A52.28,52.28,0,0,1,263.06,116a57.44,57.44,0,0,1,8.9-1.33,49.17,49.17,0,0,1,5.51-.09c1.24.06,1.88.15,1.87.24s-2.53.25-7.27.9a66.27,66.27,0,0,0-8.63,1.78,53,53,0,0,0-11.09,4.41,56,56,0,0,0-6.08,3.66l-1.56,1.07a15.65,15.65,0,0,0-1.56,1.15L240,130.33a92.12,92.12,0,0,0-12.11,13,137.22,137.22,0,0,0-11.07,17.31c-3.53,6.39-6.76,13.41-10.21,20.85s-7.5,15-11.41,23-7.93,16.33-11.64,25.13a184,184,0,0,0-9.6,27.78,189.59,189.59,0,0,0-5.12,30.75,111.53,111.53,0,0,0,0,16,86,86,0,0,0,2.78,16.06,72.7,72.7,0,0,0,15.87,29.15l2.93,3.12,3.12,3c2.21,1.91,4.39,3.9,6.66,5.78s4.56,3.77,7,5.48l3.59,2.63,3.71,2.47c9.95,6.54,21,11.65,32.9,14a86.59,86.59,0,0,0,17.95,1.56,74.83,74.83,0,0,0,8.86-.52,43.48,43.48,0,0,0,8.34-2.07,51.37,51.37,0,0,0,14.85-8.56,80.28,80.28,0,0,0,12-12.29,138.9,138.9,0,0,0,17.31-29.17c2.29-5.1,4.36-10.22,6.1-15.41.95-2.57,1.75-5.17,2.57-7.76s1.54-5.18,2.29-7.75c2.89-10.33,5.19-20.56,7-30.57s3.24-19.8,4.13-29.3c.46-4.74.75-9.42.88-14,.1-2.3,0-4.55.05-6.79-.06-1.12-.11-2.22-.16-3.32l-.08-1.65-.18-1.61c-.13-1.08-.22-2.12-.38-3.22s-.31-2.2-.47-3.29c-.28-2.17-.57-4.32-.85-6.45-.55-4.24-1.1-8.37-1.72-12.38-2.43-16.06-6-30.39-11.41-42a69.81,69.81,0,0,0-9.29-15.09,48.21,48.21,0,0,0-11-9.94c-.93-.62-1.89-1.12-2.79-1.66a23.84,23.84,0,0,0-2.76-1.29c-1.85-.76-3.62-1.41-5.27-2-3.31-1.12-6.18-1.87-8.5-2.44C290.32,115.9,287.82,115.53,287.84,115.32Z" style="fill:#ff9a6c"></path></g><g id="freepik--Character--inject-2"><path d="M200.23,267.73l-2.22-.82-1.11-.43c-.21-.09-1.47-.54-.25-.1a23.48,23.48,0,0,1-4.21-2.14c-.33-.2-.65-.41-1-.63s-1.3-.72-.21-.12a7.54,7.54,0,0,1-1.42-1.29c-.28-.27-.53-.57-.79-.85-.84-.91.43.77-.09-.13-.16-.27-.33-.52-.48-.79a5.68,5.68,0,0,1-.28-.55q-.34-.75.15.36c.08-.23-.4-1.25-.45-1.49a6.8,6.8,0,0,0-.18-.92c.43,1.09.09.72.07.12s.11-1.26.06-1.85c.09,1.07-.16.9,0,.46s.2-.77.31-1.15c.27-1-.59,1-.07.14.15-.25.29-.51.43-.76.49-.89-.83.83-.11.12a3.45,3.45,0,0,0,.51-.5c.33-.49-1.08.64-.23.17a5.15,5.15,0,0,1,.77-.44l-.53.23c.28-.1.56-.18.84-.25.6-.11.57-.11-.07,0a8.42,8.42,0,0,1,.87,0c.21,0,1.6.21.4,0l.89.17c.9.2,1.78.47,2.66.76,1.6.53,3.17,1.17,4.8,1.6,3.85,1,8.07,1.12,11.64-.85,7.58-4.16,7.08-15.05.82-20.08-3.5-2.81-7.51-3.79-11.94-3.94-.81,0-1.63,0-2.45-.08-.1,0-1.7-.16-.58,0a10,10,0,0,1-1.09-.22,3.24,3.24,0,0,1-1.08-.33l.54.23c-.22-.11-.44-.22-.65-.35l-.32-.19c-.46-.32-.4-.27.18.14-.16,0-1.07-1.33-.12,0-.67-.9.18,1-.07-.07s0,1.22,0,.07-.28,1.18,0,.09-.64.92,0,0a4.41,4.41,0,0,1,.36-.58l-.39.49c.15-.18.31-.36.47-.52s.88-1.13,0-.14a4.9,4.9,0,0,1,1.23-.77c1-.62-1,.23.12-.06a5.06,5.06,0,0,1,1-.28c0,.05-1.35.05-.3.05.44,0,.88,0,1.33,0,.21,0,1.61.23.39,0,.44.08.87.16,1.3.26.95.22,1.87.51,2.79.81,3.4,1.13,6.6,2.33,10.19,2.63a15.65,15.65,0,0,0,9.67-2.19c5.77-3.8,6.57-11.13,5.62-17.42a18.43,18.43,0,0,0-3.81-8.95c-2.38-2.94-6.51-4.7-10.17-5.28a37.79,37.79,0,0,0-11.43.34,8.26,8.26,0,0,0-1,.14c1.54-.38.21,0-.2,0a16.59,16.59,0,0,1-1.72.13c-.27,0-.53,0-.8,0-1.31,0,.88.32.14,0a3.28,3.28,0,0,0-.66-.19c.87.4,1.08.48.62.24a2.82,2.82,0,0,1-.36-.24c-2.21-1.54-5.79-.48-7,1.84a5.24,5.24,0,0,0,1.84,7c2.27,1.59,5.28,1.74,7.95,1.45,1-.11,2-.25,2.93-.38l1-.14c.15,0,1.16-.3.33-.05s.2,0,.36-.05l1.06-.11c.86-.08,1.71-.14,2.57-.14.69,0,1.37.06,2.06.08s-1.26-.26,0,0c.39.08.77.14,1.15.24s.77.21,1.15.33c.22.07,1.38.63.3.09.38.19.77.38,1.14.59.18.11,1.67,1.15.8.47s.38.5.57.66c-.9-.75-.49-.66-.17-.16.15.23.29.48.42.73s.23.55.38.78c-.7-1-.25-.6-.08-.1a18.48,18.48,0,0,1,.51,1.8c.07.32.12.63.18.94.24,1.14-.1-1.24,0-.08.06.64.11,1.28.12,1.93s0,1.06,0,1.58c0,.3-.1.63-.09.93-.08-1.44.06-.44-.06.11s-.29,1.08-.46,1.61c-.22.68,0-.48.21-.5a6,6,0,0,0-.35.67c-.4,1,.77-.69,0,0a8.87,8.87,0,0,0-.69.66l.53-.42a6.16,6.16,0,0,1-.55.33,5.07,5.07,0,0,1-.57.29c.73-.29.84-.35.32-.16-.19.05-1.61.34-1.62.39l.69-.09-.69.06c-.34,0-.69,0-1,0l-1.05,0c-1.21,0,1.18.23,0,0a21.33,21.33,0,0,1-2.1-.49c-3.79-1.08-7.3-2.64-11.24-3.11a14.57,14.57,0,0,0-11.24,3.35,11.14,11.14,0,0,0-4,10.5c.79,4.24,4.48,7.16,8.44,8.32a23.64,23.64,0,0,0,5.74.73c1,0,2,.09,2.94.11,1.48,0-.73-.23.48,0a15.54,15.54,0,0,1,1.53.38c.05,0,1.24.47.49.15s.41.23.45.25a3.48,3.48,0,0,1,1,.61l-.42-.33c.2.16.39.34.58.52s1.15,1,.22.12a5,5,0,0,1,.59,1c.6.91-.19-1,0,.06,0,.17.34.94.24,1,0-.22-.07-.44-.1-.66,0,.23,0,.46,0,.69.1,1.12.34-1.06,0,0,0,.11-.18,1-.29,1,.08-.2.16-.4.25-.6-.11.2-.22.4-.35.59.13-.17.27-.33.4-.49a5.55,5.55,0,0,1-.48.49s1.09-.63.16-.13l-.32.19c-.5.25-.42.22.25-.08-.23.08-.46.14-.7.2-.56.11-.47.11.29,0a4.8,4.8,0,0,1-2.26,0l.59.09-.77-.13-.76-.17c-1.78-.42-3.46-1.12-5.19-1.69-4.18-1.38-8.58-1.87-12.67,0-7.25,3.37-8.29,12.71-5.44,19.31,3.17,7.34,11.44,10.59,18.41,13.13,2.52.91,5.72-1,6.3-3.58a5.26,5.26,0,0,0-3.58-6.3Z" style="fill:#ff9a6c"></path><path d="M185,248.34c.05.07-.65.59-1.56,1.64a12.08,12.08,0,0,0-2.78,10c.24,1.37.57,2.18.49,2.21a5.42,5.42,0,0,1-.85-2.14,11.28,11.28,0,0,1,.11-5.55,11.12,11.12,0,0,1,2.76-4.81A5.35,5.35,0,0,1,185,248.34Z" style="fill:#ffbf9d"></path><path d="M192.74,246.14c0,.15-.71.26-1.59.26s-1.59-.11-1.59-.26.71-.26,1.59-.26S192.74,246,192.74,246.14Z" style="fill:#ffbf9d"></path><path d="M192.91,236.57a3.2,3.2,0,0,1-1.49-.34,7.94,7.94,0,0,1-3-2.2,7.81,7.81,0,0,1-1.66-3.3,2.92,2.92,0,0,1-.09-1.53,7.73,7.73,0,0,1,.44,1.43,9.31,9.31,0,0,0,1.71,3.06,9,9,0,0,0,2.74,2.2C192.38,236.32,192.93,236.48,192.91,236.57Z" style="fill:#ffbf9d"></path><path d="M201.46,222.5a18.39,18.39,0,0,0-3.24-.23,19.27,19.27,0,0,0-3.14.87,5.32,5.32,0,0,1,6.38-.64Z" style="fill:#ffbf9d"></path><path d="M219.26,229.55a7.44,7.44,0,0,1-8,.8,19.91,19.91,0,0,0,4.09.27A20.19,20.19,0,0,0,219.26,229.55Z" style="fill:#ffbf9d"></path><path d="M207.78,206.23a13.57,13.57,0,0,1-10.36-.62c.06-.15,2.28.67,5.15.83S207.75,206.07,207.78,206.23Z" style="fill:#ffbf9d"></path><path d="M223.05,207.58c-.09,0-.25-.69-.9-1.61a8.14,8.14,0,0,0-3.43-2.68,18.38,18.38,0,0,0-4.33-1.11,8.3,8.3,0,0,1-1.85-.38,6.22,6.22,0,0,1,1.9,0,14.5,14.5,0,0,1,4.48,1,7.62,7.62,0,0,1,3.54,3A3.17,3.17,0,0,1,223.05,207.58Z" style="fill:#ffbf9d"></path><path d="M201.36,267.17a3.2,3.2,0,0,0-3.18-3.43c-.9,0-2.87.91-2.61,2.41,0,0-2.33-2-3.55.72a1.93,1.93,0,0,0-3.13.5,1.82,1.82,0,0,0-2.83,1.22,4.18,4.18,0,0,0-.21,1.17s-1.87-1.18-3.46,1.42c-1,1.67-.93,5.05-.93,5.05s-2.31,4.64-2.31,7,1.18,7,.89,9.35-.83,10-.17,13.09a14.52,14.52,0,0,0,9.24,10.05c4.4,1.34,9.23-3.24,9.23-3.24l1.87-9.42Z" style="fill:#ffbf9d"></path><g style="opacity:0.30000000000000004"><path d="M199.64,268.82a1.42,1.42,0,0,1-1.52-.16,2.28,2.28,0,0,1-.77-1.4,2.42,2.42,0,0,1,.36-2,1.48,1.48,0,0,1,1.84-.45,3,3,0,0,1,1,1.52A2.23,2.23,0,0,1,199.64,268.82Z" style="fill:#fff"></path></g><path d="M196.43,272.2c-.15,0,.1-1.44-.16-3.15s-.89-3-.75-3.08a4.91,4.91,0,0,1,1.28,3A4.83,4.83,0,0,1,196.43,272.2Z" style="fill:#ff9a6c"></path><path d="M192.8,272.53c-.17,0,.11-1.32-.13-2.83s-.77-2.75-.6-2.8a5.25,5.25,0,0,1,1.12,2.71A4.08,4.08,0,0,1,192.8,272.53Z" style="fill:#ff9a6c"></path><path d="M189.77,273c-.15,0,.1-1.31-.16-2.84s-.87-2.65-.73-2.74a4.09,4.09,0,0,1,1.26,2.66A4.05,4.05,0,0,1,189.77,273Z" style="fill:#ff9a6c"></path><path d="M186,274.76c-.18,0,.1-1.22.15-2.62a9.73,9.73,0,0,0-.47-2.5c.05,0,.31.15.56.59a3.89,3.89,0,0,1,.44,1.92A4.53,4.53,0,0,1,186,274.76Z" style="fill:#ff9a6c"></path><path d="M186.56,274.35c0,.15-.22.29-.49.42s-.53.21-.64.11,0-.43.41-.59S186.56,274.21,186.56,274.35Z" style="fill:#ff9a6c"></path><path d="M190,272.71c0,.14-.22.3-.52.4s-.59.09-.65,0,.15-.37.49-.47S190,272.56,190,272.71Z" style="fill:#ff9a6c"></path><g style="opacity:0.30000000000000004"><path d="M194.45,266.37a.7.7,0,0,0-.77-.1,1,1,0,0,0-.49.64,1.1,1.1,0,0,0,.36,1.12.92.92,0,0,0,1.14,0,1,1,0,0,0,.3-.68,1.07,1.07,0,0,0-.11-.66.63.63,0,0,0-.55-.32" style="fill:#fff"></path></g><g style="opacity:0.30000000000000004"><path d="M191.29,267.3a.68.68,0,0,0-.77-.1,1,1,0,0,0-.49.64,1.1,1.1,0,0,0,.36,1.12.92.92,0,0,0,1.14,0,1,1,0,0,0,.3-.69,1.05,1.05,0,0,0-.11-.65.62.62,0,0,0-.55-.32" style="fill:#fff"></path></g><g style="opacity:0.30000000000000004"><path d="M188.09,268a.68.68,0,0,0-.77-.11,1,1,0,0,0-.49.64,1.11,1.11,0,0,0,.36,1.12.9.9,0,0,0,1.15,0,1.12,1.12,0,0,0,.3-.68,1,1,0,0,0-.12-.65A.63.63,0,0,0,188,268" style="fill:#fff"></path></g><g style="opacity:0.30000000000000004"><path d="M184.73,270.52a.66.66,0,0,0-.77-.1,1,1,0,0,0-.48.64,1.1,1.1,0,0,0,.36,1.12.9.9,0,0,0,1.14,0,1.22,1.22,0,0,0,.19-1.33.65.65,0,0,0-.55-.32" style="fill:#fff"></path></g><path d="M230.73,199.23a23.86,23.86,0,0,1-5.22-9.33,38.07,38.07,0,0,1-1.66-10.45c-.07-9.45.68-19,7.48-30.93s23.15-21.72,33.42-24.36c11.19-2.87,31.64-1.46,43.39,8.61s19,26.34,16.42,37.9c-2.26,10-5,14.49-3.56,24.71s6.05,22.9,11.3,36.75,7.66,32.15,3.36,52.47-12.11,48.15-24.17,66.4-30.65,34.9-51.06,34.47S215,363.4,214.27,340.28s10.38-56.38,10.38-56.38l33-46.26a12.51,12.51,0,0,0-4.58-4.33c-2.65-1.19-5.11-1.14-5.94-1.85s-1.35-3.26-1.35-3.26-4.45-.26-5-2.12-.89-5.69-1.05-5.87-1.79-1.33-1.79-1.33-2.47.49-4-.58-2.59-2-1.9-5.05,2.28-6.48,1.18-9.95A11.4,11.4,0,0,0,230.73,199.23Z" style="fill:#ffbf9d"></path><path d="M261.86,274.11a4.19,4.19,0,0,0,.79,0c-1-.14-1.22-.17-.68-.08l.48.11c.72.18,1.41.56,2.13.72l-.67-.28.56.26c.37.17.74.36,1.1.55a20.24,20.24,0,0,1,2,1.25c.16.1.31.21.46.32-.65-.51-.82-.64-.52-.39s.44.36.64.56l.3.31c.34.39.19.19-.44-.59.06.42.78.85.76,1.3q-.39-1-.09-.18c.08.24.16.48.22.72,0,.07.22,1.11.25,1.12-.09-.72-.1-.79,0-.21q0,.39,0,.78a4.06,4.06,0,0,1-.06,1.56c.11-.74.12-.83,0-.28,0,.23-.09.46-.14.69-.11.46-.24.91-.39,1.36l-.12.34c-.2.52-.16.44.11-.24,0,.31-.48,1-.64,1.26s-.51,1.09-.77,1.18c.46-.56.51-.63.16-.2-.15.18-.31.35-.47.52a10.33,10.33,0,0,1-.74.74c-.18.16-.35.31-.53.45.58-.44.65-.5.2-.18l-1.23.72c-.51.24-.44.21.22-.08l-.69.23c-.24.07-1.18.45-1.4.33.71-.09.87-.12.47-.08l-.53,0c-.2,0-1.29.1-1.41-.06.78.11.89.11.32,0-.22-.05-.45-.11-.67-.18s-.44-.14-.66-.23c.68.3.78.33.27.08s-.79-.47-1.17-.75c-2.16-1.6-5.81-.43-7,1.84-1.41,2.67-.47,5.3,1.84,7a14.79,14.79,0,0,0,12.68,1.89,17.53,17.53,0,0,0,10-8.25A19.45,19.45,0,0,0,279,276.91a14.21,14.21,0,0,0-6.73-9.43,29.33,29.33,0,0,0-5.27-2.6,12.49,12.49,0,0,0-5.17-1c-2.67.17-5.25,2.23-5.12,5.12.12,2.63,2.26,5.31,5.12,5.12Z" style="fill:#ff9a6c"></path><path d="M275.24,288.73c-.08,0,.36-.94.8-2.48a18.06,18.06,0,0,0,.63-6.17,18.33,18.33,0,0,0-1.53-6c-.66-1.46-1.24-2.29-1.16-2.34s.19.17.47.53a11.25,11.25,0,0,1,1,1.65,16,16,0,0,1,.92,12.45,11.31,11.31,0,0,1-.76,1.78C275.41,288.54,275.27,288.75,275.24,288.73Z" style="fill:#ffbf9d"></path><path d="M271.39,293.65a9.85,9.85,0,0,1-5.25,2.11,10.84,10.84,0,0,1,2.59-1.15A11.41,11.41,0,0,1,271.39,293.65Z" style="fill:#ffbf9d"></path><path d="M207.61,261.45s-4.22-2.79-4.7-4.79,1.3-3.77,1.3-3.77-3.63-2.49-.15-5.89c0,0-2.06-5.49,2.62-6.17,0,0-.15-4.43,4.08-4.41l2,.68s0-2.7,2.6-2.45,6.48,2.07,8.1,7.45l.23,6Z" style="fill:#ffbf9d"></path><path d="M204.45,252.84a11.11,11.11,0,0,0,1.76.61,6.46,6.46,0,0,1,2,.72,2.44,2.44,0,0,1,.89,1,1.7,1.7,0,0,1,0,1.49,2.44,2.44,0,0,1-1.08,1,4.09,4.09,0,0,1-1.22.41,4.71,4.71,0,0,1-2.13-.15c-1.18-.4-1.66-1-1.61-1.07a11,11,0,0,0,1.71.7,4.47,4.47,0,0,0,1.94,0,2.94,2.94,0,0,0,1.92-1.14,1.51,1.51,0,0,0-.67-1.84,7.24,7.24,0,0,0-1.83-.77C205,253.47,204.38,252.89,204.45,252.84Z" style="fill:#ff9a6c"></path><path d="M204.11,247c0-.06,1,.27,2.59.52a11.75,11.75,0,0,1,2.85.7,4.27,4.27,0,0,1,1.48,1,3.16,3.16,0,0,1,.79,1.8,2.27,2.27,0,0,1-.72,1.86,3.5,3.5,0,0,1-1.62.81,7.41,7.41,0,0,1-3,0,7.28,7.28,0,0,1-1.88-.6c-.42-.21-.63-.37-.61-.4a18.69,18.69,0,0,0,2.55.63,8.14,8.14,0,0,0,2.78-.14,3.22,3.22,0,0,0,1.38-.72,1.7,1.7,0,0,0,.54-1.44,2.64,2.64,0,0,0-.64-1.5,4,4,0,0,0-1.29-.92,13.41,13.41,0,0,0-2.72-.78A6.26,6.26,0,0,1,204.11,247Z" style="fill:#ff9a6c"></path><path d="M209.45,248.62a5,5,0,0,0,2.44.11,3.4,3.4,0,0,0,2-1.53,3.18,3.18,0,0,0,.26-3c-.48-1-1.65-1.36-2.59-1.74s-1.86-.66-2.61-.9a19.66,19.66,0,0,1-2.44-.74,8.8,8.8,0,0,1,2.54.38c.77.19,1.69.45,2.68.8a10.86,10.86,0,0,1,1.54.65,3,3,0,0,1,1.36,1.31A3.8,3.8,0,0,1,212,249.1a3.51,3.51,0,0,1-1.93-.13C209.63,248.81,209.43,248.64,209.45,248.62Z" style="fill:#ff9a6c"></path><path d="M214,243.59a4.64,4.64,0,0,0,1.68-.62,2.53,2.53,0,0,0,1-1.51,2.6,2.6,0,0,0-.44-2.15,4.38,4.38,0,0,0-1.88-1.36l-1.88-.78a10.09,10.09,0,0,1-1.72-.75,5,5,0,0,1,1.85.4c.56.17,1.21.39,1.93.68a4.51,4.51,0,0,1,2.13,1.49,3,3,0,0,1,.48,2.59,2.84,2.84,0,0,1-1.29,1.71A2.08,2.08,0,0,1,214,243.59Z" style="fill:#ff9a6c"></path><g style="opacity:0.30000000000000004"><path d="M208.09,249c-.35,0-.51.43-.64.72a3.5,3.5,0,0,0-.22,1.82,1.14,1.14,0,0,0,.27.64,1.33,1.33,0,0,0,1.24.19,1.93,1.93,0,0,0,1.55-1.07,1.57,1.57,0,0,0-.53-1.56,3.18,3.18,0,0,0-1.67-.74" style="fill:#fff"></path></g><g style="opacity:0.30000000000000004"><path d="M206.56,254.79c-.22,0-.33.28-.41.46a2.21,2.21,0,0,0-.14,1.17.69.69,0,0,0,.17.41.87.87,0,0,0,.8.13,1.28,1.28,0,0,0,1-.69,1,1,0,0,0-.35-1,2,2,0,0,0-1.07-.48" style="fill:#fff"></path></g><g style="opacity:0.30000000000000004"><path d="M211.37,243.55c-.35-.17-.69.21-.93.45a3.59,3.59,0,0,0-.91,1.76,1.24,1.24,0,0,0,0,.76,1.54,1.54,0,0,0,1.2.73,2.08,2.08,0,0,0,2-.44,1.75,1.75,0,0,0,0-1.8,3.68,3.68,0,0,0-1.44-1.46" style="fill:#fff"></path></g><g style="opacity:0.30000000000000004"><path d="M214.41,239c-.3-.14-.59.18-.79.39a3,3,0,0,0-.78,1.49,1,1,0,0,0,0,.65,1.32,1.32,0,0,0,1,.62,1.78,1.78,0,0,0,1.7-.37,1.46,1.46,0,0,0,0-1.54,3.16,3.16,0,0,0-1.22-1.24" style="fill:#fff"></path></g><path d="M217.07,246.51s2-10,3-13.74c.77-2.89,2.11-3.36.57-5.35,0,0-4.31-3.88-3.73-6.83a8.19,8.19,0,0,1,.87-2.41,3.73,3.73,0,0,1,2.89-1.92h0a3.86,3.86,0,0,1-.11-4.85c1.9-2.56,3.32-2.82,5.5-2.1,0,0,1.6-3.95,3-5.08s4.31-.93,4.31-.93,11.43,24.43,13.16,29.11-3.24,14-3.24,14" style="fill:#ffbf9d"></path><path d="M245.9,227.68c1.73,4.69-.19,13.1-.19,13.1.2-.35,13.77-6.93,18.15-10.47s19.5-14.43,31.39-14.32,16.48,4.9,18,6.37l.8,24c-6,10.13-21.65,12.08-22.69,12.49a42.12,42.12,0,0,0-9.52,5.44c-3.91,2.93-22.9,11.53-31.37,12.56-7.16.87-36.07-7.47-33-35.26,0,0,2.67-13.69,3.68-16.83" style="fill:#ffbf9d"></path><path d="M312.08,222.65a6,6,0,0,1-.67-.57,18.64,18.64,0,0,0-2-1.55,22.16,22.16,0,0,0-8.52-3.38,29.81,29.81,0,0,0-13.55.32,61,61,0,0,0-15.25,6.93c-2.6,1.59-5.07,3.25-7.37,5-1.15.84-2.23,1.77-3.39,2.55s-2.3,1.51-3.43,2.19c-2.27,1.36-4.45,2.58-6.49,3.7l-3,1.61-1.38.75-.67.37-.55.33-.43.2.09-.34a29.45,29.45,0,0,0,.93-8.83,16.41,16.41,0,0,0-.55-3.2,4.63,4.63,0,0,1,.31.79,13.27,13.27,0,0,1,.45,2.39,28.43,28.43,0,0,1-.79,9l-.34-.14a4.17,4.17,0,0,1,.69-.48l.67-.38,1.38-.77,2.93-1.63c2-1.14,4.21-2.37,6.46-3.74,1.12-.68,2.26-1.4,3.39-2.18s2.2-1.7,3.37-2.56c2.31-1.73,4.79-3.41,7.41-5A60.07,60.07,0,0,1,287.24,217a27.39,27.39,0,0,1,7.35-.91,33.7,33.7,0,0,1,6.4.7,21.75,21.75,0,0,1,8.57,3.58,16.34,16.34,0,0,1,1.93,1.64q.3.3.45.48C312,222.59,312.09,222.65,312.08,222.65Z" style="fill:#ff9a6c"></path><path d="M221.23,224.53a1.77,1.77,0,0,1,0,.31c-.05.23-.11.52-.18.89-.18.81-.42,2-.73,3.39-.67,3-1.63,7.25-2.81,12.53v0a34.33,34.33,0,0,0-.08,6.76v0c.64,2.74,1.35,5.75,2.1,8.92v0c2.81,6.94,9.14,13.46,17.37,17.07A25.38,25.38,0,0,0,247,276.75a48.87,48.87,0,0,0,5-.69l4.8-.79h0a104,104,0,0,0,14.42-5.17c2.1-.93,4.06-1.87,5.81-2.84a17.88,17.88,0,0,0,4.47-3.18,15.88,15.88,0,0,1,3.63-2.73,23.74,23.74,0,0,1,3.05-1.43c1.72-.65,2.68-.9,2.68-.9s-.05,0-.17.09l-.5.19c-.44.17-1.11.41-1.95.77a23.52,23.52,0,0,0-3,1.49,15.47,15.47,0,0,0-3.52,2.73,18.05,18.05,0,0,1-4.52,3.29c-1.76,1-3.71,2-5.82,2.91a102.88,102.88,0,0,1-14.46,5.26h0l-4.8.8a48.74,48.74,0,0,1-5.05.71,25.8,25.8,0,0,1-10.36-2.47c-8.35-3.66-14.78-10.3-17.61-17.38v0L217,248.46v0h0a34.92,34.92,0,0,1,.13-6.84h0c1.25-5.27,2.27-9.52,3-12.5.36-1.44.64-2.57.83-3.37.1-.36.17-.65.23-.88A1.65,1.65,0,0,1,221.23,224.53Z" style="fill:#ff9a6c"></path><path d="M241.82,249.92a10.64,10.64,0,0,1,4.44-9.52,23.84,23.84,0,0,0-3,4.4A24.6,24.6,0,0,0,241.82,249.92Z" style="fill:#ff9a6c"></path><path d="M305,260.45a7,7,0,0,1-2.17.83,15.54,15.54,0,0,1-5.61.33,26.82,26.82,0,0,1-5.45-1.3,8.83,8.83,0,0,1-2.14-.88,11.12,11.12,0,0,1,2.25.52,40,40,0,0,0,5.4,1.13,18,18,0,0,0,5.47-.17A19.25,19.25,0,0,1,305,260.45Z" style="fill:#ff9a6c"></path><path d="M298.31,266a12.54,12.54,0,0,1-5.08-2.36,12.27,12.27,0,0,1-3.89-4c.12-.11,1.71,1.83,4.2,3.59S298.37,265.79,298.31,266Z" style="fill:#ff9a6c"></path><path d="M249.48,227.48a7.45,7.45,0,0,1-1.52.25,18.87,18.87,0,0,1-4.2,0,8.15,8.15,0,0,1-1.39-.28,3,3,0,0,1-1.4-.79,6.34,6.34,0,0,1-1.2-3.18c-.17-1.18,0-2.47-.62-3.44a1.6,1.6,0,0,0-1.41-.77,15.72,15.72,0,0,1-2,.09,4.35,4.35,0,0,1-3.34-2.25,6,6,0,0,1-.47-3.73c.39-2.36,1.56-4.25,1.6-6a18.28,18.28,0,0,0-.46-4.1c-.21-1-.43-1.46-.39-1.48a4.46,4.46,0,0,1,.59,1.43,16.75,16.75,0,0,1,.64,4.16c0,1.88-1.16,3.75-1.49,6a5.52,5.52,0,0,0,.44,3.41,3.86,3.86,0,0,0,2.93,2,17.19,17.19,0,0,0,2-.09,2.26,2.26,0,0,1,1.06.27,2.31,2.31,0,0,1,.78.74,3.93,3.93,0,0,1,.56,1.89c0,.63,0,1.22.11,1.78a5.94,5.94,0,0,0,1.06,3,2.57,2.57,0,0,0,1.18.68,8,8,0,0,0,1.31.3,21.86,21.86,0,0,0,4.14.18A9.34,9.34,0,0,1,249.48,227.48Z" style="fill:#ff9a6c"></path><path d="M260,124.79c12.45-4.72,36-3.42,47.71,6.65S329.05,157,325.2,173.27c-2.18,9.21-4.31,15-3.5,23.78h0c-4.85-.29-9.79-5.67-12.32-9.82s-3.48-8.93-7.22-12-10.37-1.94-13.29,2c-1.38,1.85-2,5.8-3.87,7.18s-6.21,2.55-8.92-.54c-3.87-4.39-6.53-9.47-9.45-13.77s-5.82-8.81-10.11-11.75-9.42-3.51-13.55-.35c-2.46,1.87-4.29,5.13-6.38,7.41s-9.1,4.94-11.56,3.07c-.72-.55-.44-1.86-.21-3.69a74.18,74.18,0,0,1,5.59-14.59C237.86,135.93,250.1,128.56,260,124.79Z" style="fill:#263238"></path><path d="M235.47,376S212.32,360.24,211,334s1.1-34.09,1.32-42.51l-25.81-.6s21-40,41.1-42.1,28.78,22.34,30.55,27.67S268.63,318,268.63,318l7,9.07" style="fill:#ffbf9d"></path><path d="M275.62,327s-.17-.19-.48-.58l-1.36-1.72L268.55,318h0v0l-5-20.24c-1-4.12-2.18-8.58-3.39-13.34-.62-2.38-1.26-4.85-2-7.34a63.75,63.75,0,0,0-2.92-7.48,46,46,0,0,0-9.73-14.15,25.12,25.12,0,0,0-7.62-5,20.74,20.74,0,0,0-9.27-1.47,18.87,18.87,0,0,0-4.74.88,27.22,27.22,0,0,0-4.48,2,45.27,45.27,0,0,0-8.11,6,101.34,101.34,0,0,0-13.67,15.85A167.78,167.78,0,0,0,186.73,291l-.23-.38,25.81.61h.25v.26c-.1,3.4-.52,6.7-.84,9.94s-.57,6.42-.7,9.53c-.27,6.22-.23,12.17,0,17.78a62.34,62.34,0,0,0,1.95,15.59,50.63,50.63,0,0,0,5.31,12.36,60,60,0,0,0,6.35,8.94,70.15,70.15,0,0,0,5.63,5.92c1.65,1.51,2.95,2.63,3.87,3.34.45.37.8.63,1,.81l.35.28-.38-.24c-.24-.18-.61-.43-1.06-.78-.94-.69-2.26-1.79-3.93-3.28a71.82,71.82,0,0,1-5.71-5.89,61,61,0,0,1-6.43-8.94,50.83,50.83,0,0,1-5.4-12.42,32.39,32.39,0,0,1-.87-3.65l-.39-1.9c-.07-.65-.14-1.3-.22-2-.34-2.63-.42-5.35-.53-8.16-.21-5.62-.27-11.58,0-17.82q.19-4.68.69-9.56c.31-3.24.72-6.54.82-9.91l.25.26-25.81-.58h-.44l.21-.38a165.8,165.8,0,0,1,10.87-17.35,101.36,101.36,0,0,1,13.76-15.93,45.53,45.53,0,0,1,8.2-6.05,26.39,26.39,0,0,1,4.58-2,19,19,0,0,1,4.87-.91A21.24,21.24,0,0,1,238,250a24,24,0,0,1,4.16,2.21,30.69,30.69,0,0,1,3.6,2.88,46.15,46.15,0,0,1,9.81,14.31,64.56,64.56,0,0,1,2.92,7.54c.75,2.52,1.38,5,2,7.37,1.19,4.77,2.31,9.24,3.34,13.36,2,8.24,3.64,15.1,4.88,20.27l0,0,5.15,6.77,1.33,1.76C275.48,326.81,275.62,327,275.62,327Z" style="fill:#ff9a6c"></path><path d="M196.89,337.69a18,18,0,0,1-6.94-2.85c-2.82-2.06-4.74-6.9-4.63-11.77.13-5.43-1.4-5.06-2.56-10.36-.93-4.24-2-8.93.11-12.71.51-.91,1.22-2,.71-2.9-.29-.51-.89-.76-1.35-1.14a2.78,2.78,0,1,1,3.64-4.21,3.2,3.2,0,0,1,3.81-2.73,3.86,3.86,0,0,1,4.2-3,3.45,3.45,0,0,1,5.64-2.79,3.56,3.56,0,0,1,2.37-4,5.27,5.27,0,0,1,4.79.95,10.5,10.5,0,0,1,3,4c2.22,4.68,3.89,13.92,2.79,19a170.47,170.47,0,0,0-.44,17.93c.1,1.76.16,3.15.2,4.24a14.34,14.34,0,0,1-1.55,7h0C207.08,337.91,203.44,338.92,196.89,337.69Z" style="fill:#ffbf9d"></path><path d="M196.89,337.69a.72.72,0,0,1,.22,0l.63.08c.55.08,1.38.19,2.45.25a12.79,12.79,0,0,0,3.91-.35,9.62,9.62,0,0,0,2.27-1,11.35,11.35,0,0,0,2.15-1.79,18.13,18.13,0,0,0,1.91-2.47,11.82,11.82,0,0,0,1.23-3.16,13.7,13.7,0,0,0,.41-3.66c-.06-1.29-.12-2.63-.18-4a152.27,152.27,0,0,1,.37-18.47h0v0a25.39,25.39,0,0,0,.1-7.6,44.83,44.83,0,0,0-1.63-7.89,25.35,25.35,0,0,0-1.52-3.86,9.89,9.89,0,0,0-2.53-3.27,5.34,5.34,0,0,0-3.85-1.22,3.52,3.52,0,0,0-3,2.45,2.7,2.7,0,0,0-.05,1.41l.18.78-.61-.51a3.18,3.18,0,0,0-5.21,2.57l0,.32-.32-.05a3.6,3.6,0,0,0-3.9,2.81l0,.28-.28-.07a3,3,0,0,0-3.49,2.5l0,.53-.4-.36a2.64,2.64,0,0,0-2.66-.42,2.31,2.31,0,0,0-1.51,2.12,2.56,2.56,0,0,0,1.16,2.35,2.87,2.87,0,0,1,1.15,1.1,2,2,0,0,1,0,1.61,10.19,10.19,0,0,1-.67,1.32,9.43,9.43,0,0,0-1.21,3.93,20,20,0,0,0,.35,5.32c.32,1.72.65,3.4,1.09,5s1.18,3,1.68,4.47a13.8,13.8,0,0,1,.45,4.46,18.43,18.43,0,0,0,.37,4,14.5,14.5,0,0,0,2.75,6.22,11.24,11.24,0,0,0,4.15,2.94,21.94,21.94,0,0,0,3,1.08l.81.2a1.25,1.25,0,0,1,.27.08l-.28,0c-.18,0-.46-.08-.82-.17a18.14,18.14,0,0,1-3.09-1,11.1,11.1,0,0,1-4.27-2.94,14.52,14.52,0,0,1-2.88-6.31,19,19,0,0,1-.41-4.08,13.7,13.7,0,0,0-.46-4.33c-.48-1.42-1.28-2.86-1.72-4.47s-.79-3.27-1.12-5a20.35,20.35,0,0,1-.37-5.44,10.6,10.6,0,0,1,.63-2.8c.31-.93.93-1.74,1.26-2.58a1.56,1.56,0,0,0,0-1.23,2.57,2.57,0,0,0-1-.9,3.06,3.06,0,0,1-1.38-2.78,3,3,0,0,1,.51-1.56,2.86,2.86,0,0,1,1.31-1,3.17,3.17,0,0,1,3.2.52l-.43.17a3.45,3.45,0,0,1,4.13-3l-.32.21a4.1,4.1,0,0,1,4.49-3.24l-.3.27a3.7,3.7,0,0,1,6.07-3l-.43.27a3.38,3.38,0,0,1,.05-1.7,4.09,4.09,0,0,1,3.46-2.82,5.81,5.81,0,0,1,4.24,1.34,10.32,10.32,0,0,1,2.67,3.44,27,27,0,0,1,1.55,4,44.11,44.11,0,0,1,1.63,8,25.43,25.43,0,0,1-.13,7.75v0a156.66,156.66,0,0,0-.45,18.41c.05,1.39.11,2.73.16,4a13.87,13.87,0,0,1-.45,3.75,12.48,12.48,0,0,1-1.3,3.26,19.29,19.29,0,0,1-2,2.49,11.89,11.89,0,0,1-2.23,1.81,9.66,9.66,0,0,1-2.34,1,12.75,12.75,0,0,1-4,.29A19.73,19.73,0,0,1,196.89,337.69Z" style="fill:#ff9a6c"></path><path d="M188,296.64c-.2,0,.34-1.35-.95-2.24a4.72,4.72,0,0,1-1.23-1.59c-.2-.51-.12-.86-.06-.85s.15.29.4.68A7.1,7.1,0,0,0,187.4,294a3.09,3.09,0,0,1,.73.88,1.75,1.75,0,0,1,.17,1C188.22,296.39,188,296.66,188,296.64Z" style="fill:#ff9a6c"></path><path d="M192.25,293.71c0,.05-.38-.12-.65-.65a2.31,2.31,0,0,1,.14-2.26l.13.4a2.44,2.44,0,0,1-.34-.14,3.25,3.25,0,0,1-1.65-1.84c-.2-.62-.13-1-.07-1s.15.36.42.87a3.42,3.42,0,0,0,1.53,1.51c.09.05.19.08.28.12l.32.13-.18.27a2.16,2.16,0,0,0-.24,1.83C192.08,293.41,192.3,293.66,192.25,293.71Z" style="fill:#ff9a6c"></path><path d="M197.38,292.59s-.28-.18-.5-.67a3.33,3.33,0,0,1-.16-2.12l.15.3a4.48,4.48,0,0,1-1-.55,4.71,4.71,0,0,1-1.72-2.31c-.23-.72-.18-1.18-.12-1.19s.17.43.47,1.05a5.29,5.29,0,0,0,1.68,2,4.7,4.7,0,0,0,.91.52l.21.09-.06.21A5.15,5.15,0,0,0,197.38,292.59Z" style="fill:#ff9a6c"></path><path d="M203.18,291.59c0,.09-1.09,0-2.83.21a24,24,0,0,0-6.58,1.62,24.29,24.29,0,0,0-5.84,3.44c-1.36,1.1-2.1,1.89-2.17,1.83s.13-.24.45-.62a13.45,13.45,0,0,1,1.48-1.49,20.56,20.56,0,0,1,5.88-3.65,20.82,20.82,0,0,1,6.75-1.51,14.78,14.78,0,0,1,2.1,0A2.14,2.14,0,0,1,203.18,291.59Z" style="fill:#ff9a6c"></path><path d="M207,288.74c.05,0-.41.68-1.57.9a3.91,3.91,0,0,1-2-.18,5.83,5.83,0,0,1-2.06-1.29,6.21,6.21,0,0,1-2.15-3.77,2.26,2.26,0,0,1,.38-1.76,8.24,8.24,0,0,0,0,1.71,6.53,6.53,0,0,0,2.14,3.43,4.69,4.69,0,0,0,3.64,1.48A6,6,0,0,0,207,288.74Z" style="fill:#ff9a6c"></path><path d="M198.26,305.5s-.15-.22-.3-.67a9.22,9.22,0,0,1-.41-1.95,11.59,11.59,0,0,1,1.13-6.44,11.76,11.76,0,0,1,4.18-4.65l-.09.18a16.14,16.14,0,0,1-.07-3,15.54,15.54,0,0,1,.46,3l0,.11-.1.07a12.19,12.19,0,0,0-5.16,10.74C198,304.49,198.35,305.47,198.26,305.5Z" style="fill:#ff9a6c"></path><path d="M200.33,288.78c.1.09-.61.91-1.87,1.21a2.55,2.55,0,0,1-2.21-.21c0-.15,1,0,2.09-.31S200.23,288.66,200.33,288.78Z" style="fill:#ff9a6c"></path><path d="M194.57,290.29c.12.09-.39.78-1.37,1s-1.7-.26-1.62-.38.73,0,1.52-.14S194.46,290.18,194.57,290.29Z" style="fill:#ff9a6c"></path><path d="M190.26,292.72c.06,0,.06.27-.12.62a2.3,2.3,0,0,1-1.11,1,2.33,2.33,0,0,1-1.5.15c-.38-.1-.56-.26-.54-.33s.92.11,1.83-.31S190.12,292.66,190.26,292.72Z" style="fill:#ff9a6c"></path><path d="M185.7,294.54c.06,0,.22.25.18.74a2,2,0,0,1-1.07,1.51,1.92,1.92,0,0,1-1.85-.11c-.41-.26-.52-.56-.47-.6s.27.13.64.27a1.77,1.77,0,0,0,2.38-1.15C185.63,294.82,185.62,294.55,185.7,294.54Z" style="fill:#ff9a6c"></path><path d="M218.26,265.72c.08,0-.64,1.47-1.6,3.87a54.68,54.68,0,0,0-3.91,19.63c0,2.58.08,4.17,0,4.18a4.31,4.31,0,0,1-.18-1.11c-.09-.72-.16-1.77-.19-3.07a47.39,47.39,0,0,1,3.95-19.78c.52-1.18,1-2.13,1.34-2.76A5.1,5.1,0,0,1,218.26,265.72Z" style="fill:#ff9a6c"></path><path d="M250.34,200.7c-.45-.19-1.67,2-4.29,3.21s-5.15.7-5.28,1.15c-.08.21.49.66,1.61.9a7.23,7.23,0,0,0,4.41-.52,7,7,0,0,0,3.23-3C250.54,201.48,250.55,200.77,250.34,200.7Z" style="fill:#263238"></path><path d="M289.81,322.55c-.05.08-1.11-.61-2.92-1.5a32,32,0,0,0-7.42-2.58,32.43,32.43,0,0,0-7.84-.67c-2,.08-3.26.28-3.28.19a2.84,2.84,0,0,1,.86-.24,20.78,20.78,0,0,1,2.4-.33,27.67,27.67,0,0,1,15.45,3.29,20,20,0,0,1,2.06,1.28C289.58,322.32,289.83,322.52,289.81,322.55Z" style="fill:#ff9a6c"></path><path d="M255.6,235.34a7,7,0,0,0-1.5-1.24,13.62,13.62,0,0,0-4.44-1.63l-1.34-.3-.64-.16a3.47,3.47,0,0,1-.36-.15l-.29-.21a5.22,5.22,0,0,1-1.09-2,4.79,4.79,0,0,1-.37-2,15.24,15.24,0,0,1,.73,1.85,5.14,5.14,0,0,0,1.06,1.75l.21.15.24.09.63.14,1.34.29a11.87,11.87,0,0,1,4.53,1.83C255.36,234.51,255.7,235.31,255.6,235.34Z" style="fill:#ff9a6c"></path><g style="opacity:0.6000000000000001"><path d="M255.84,204.12a17.69,17.69,0,0,0-4,1.94,6.77,6.77,0,0,0-2.71,3.49,3.64,3.64,0,0,0,1.4,4.22c1.25.67,2.79.27,4.12-.21a11.94,11.94,0,0,0,4.31-2.4,5,5,0,0,0,1.6-4.47,3.76,3.76,0,0,0-4.68-2.57" style="fill:#ff9a6c"></path></g><path d="M295,198a10.73,10.73,0,0,0,2.06.44,8.23,8.23,0,0,0,5.34-1.64,11.91,11.91,0,0,0,4.16-7.16,15.61,15.61,0,0,0-1.12-10.12,10.63,10.63,0,0,0-3.42-4,10.24,10.24,0,0,0-4.59-1.78,8.32,8.32,0,0,0-4.39.56,9,9,0,0,0-3.14,2.29,18.93,18.93,0,0,0-3,4.89c-.25.59-.46,1.06-.62,1.45a2,2,0,0,1-.24.5,2,2,0,0,1,.14-.54c.11-.34.28-.85.53-1.49a17.72,17.72,0,0,1,2.9-5.06,9.26,9.26,0,0,1,3.25-2.45,8.76,8.76,0,0,1,4.62-.64,10.65,10.65,0,0,1,4.82,1.84,11,11,0,0,1,3.61,4.2A15.93,15.93,0,0,1,307,189.78a12.11,12.11,0,0,1-4.42,7.36,8.18,8.18,0,0,1-5.58,1.54,6.67,6.67,0,0,1-1.55-.38A2.18,2.18,0,0,1,295,198Z" style="fill:#ff9a6c"></path><path d="M243,189.92a1.9,1.9,0,0,1-.3,2.28A5.46,5.46,0,0,1,240,194a5,5,0,0,1-2.76.13,3.28,3.28,0,0,1-1.81-1.17,1.92,1.92,0,0,1,.31-2.29,5.46,5.46,0,0,1,2.67-1.76,5,5,0,0,1,2.76-.14A3.32,3.32,0,0,1,243,189.92Z" style="fill:#263238"></path><path d="M233.74,151.37c-2.2,1.58-5.13.77-7.33.78a4.49,4.49,0,0,0-3.63,2.42,3.26,3.26,0,0,0,.66,4.07,9.2,9.2,0,0,0-7,2.28,6.18,6.18,0,0,0-1.46,6.94,6.5,6.5,0,0,0,4.55,3.26,14.24,14.24,0,0,0,6.23,0c7.58-2.15,11.08-6.43,14-12.1Z" style="fill:#263238"></path><path d="M304.45,122.35c.48.33.6,1.07.57,2a22.08,22.08,0,0,1-.44,3.15,23.12,23.12,0,0,1-.78,3.07c-.31.85-.7,1.49-1.27,1.61s-1.22-.36-1.69-1.36a7.37,7.37,0,0,1,1.53-7.81C303.19,122.21,304,122,304.45,122.35Z" style="fill:#263238"></path><path d="M295.75,117.73c.58,0,1.16.77,1.75,2s1.22,3,1.92,4.81,1.35,3.55,1.74,4.88.49,2.32,0,2.67-1.42,0-2.54-1.09a14.53,14.53,0,0,1-4.07-10.78C294.7,118.71,295.18,117.78,295.75,117.73Z" style="fill:#263238"></path><path d="M294.75,189.63a7.86,7.86,0,0,0,2-.43,4,4,0,0,0,1.68-1.35,3.43,3.43,0,0,0,.53-2.51,3.14,3.14,0,0,0-1.36-2.14,3.22,3.22,0,0,0-2.07-.45,4.33,4.33,0,0,0-1.87.79c-.06,0,.41-.88,1.82-1.17a3.37,3.37,0,0,1,4,2.88,3.77,3.77,0,0,1-.65,2.88,4.12,4.12,0,0,1-1.94,1.42A2.9,2.9,0,0,1,294.75,189.63Z" style="fill:#ff9a6c"></path><path d="M202.47,182.22s-.08.2-.27.57l-.87,1.63c-.77,1.46-1.9,3.57-3.35,6.29-2.88,5.47-7.08,13.38-11.81,23.38A266.91,266.91,0,0,0,172,250.17a197.81,197.81,0,0,0-5.36,22.27,145.64,145.64,0,0,0-2.43,24.44c-.08,2.1.07,4.19.11,6.27s.32,4.13.49,6.17q.21,1.53.42,3c.15,1,.26,2,.49,3,.42,2,.73,4,1.3,5.86A72.53,72.53,0,0,0,176,342.1a89.89,89.89,0,0,0,13.31,15.8,146,146,0,0,0,13.9,11.51,200.7,200.7,0,0,0,22.15,13.92c2.71,1.48,4.85,2.56,6.31,3.29l1.66.82.56.29s-.2-.07-.59-.24-1-.42-1.68-.78c-1.47-.69-3.63-1.75-6.36-3.2A194.8,194.8,0,0,1,203,369.71a145.76,145.76,0,0,1-14-11.5,90.12,90.12,0,0,1-13.42-15.85,72.92,72.92,0,0,1-9.14-21c-.58-1.92-.89-3.91-1.32-5.89-.23-1-.34-2-.49-3s-.28-2-.43-3.05c-.17-2.05-.39-4.12-.49-6.2s-.19-4.19-.11-6.31a144.3,144.3,0,0,1,2.45-24.52A196.49,196.49,0,0,1,171.5,250a261.71,261.71,0,0,1,14.34-36.1c4.77-10,9-17.87,12-23.31,1.49-2.7,2.65-4.8,3.44-6.25l.91-1.61Z" style="fill:#fff"></path><g style="opacity:0.2"><path d="M245.42,261.3a19.11,19.11,0,0,0-8.45-7.41,2.39,2.39,0,0,0-2.26.18h0a2.34,2.34,0,0,0-1.05,1.71,19.54,19.54,0,0,0,1.61,10.07,32,32,0,0,0,7.47,10.22,3.55,3.55,0,0,0,2.2,1c2.15.11,2.84-1.86,3.07-3.55A19,19,0,0,0,245.42,261.3Z" style="fill:#fff"></path></g><g style="opacity:0.2"><path d="M287.77,221a3,3,0,0,0-2.93-.27c-3.95.32-7.29,2.45-10.09,5.25-.82.8-1.59,2-1,3a2.68,2.68,0,0,0,2.1,1,14.77,14.77,0,0,0,11.22-3.41,4.85,4.85,0,0,0,1.89-2.91A3,3,0,0,0,287.77,221Z" style="fill:#fff"></path></g><path d="M343.32,250.42a5.11,5.11,0,0,1,0-.64c0-.48.11-1.08.18-1.84.18-1.59.4-3.89.61-6.74s.38-6.26.45-10,0-7.93-.23-12.29-.65-8.49-1.12-12.24-1-7.11-1.54-9.92-1-5.08-1.34-6.64c-.16-.74-.28-1.34-.38-1.81a2.93,2.93,0,0,1-.1-.64,3.54,3.54,0,0,1,.2.62c.12.46.28,1,.48,1.78.41,1.55.93,3.81,1.5,6.62s1.14,6.17,1.66,9.93.91,7.91,1.16,12.28.26,8.53.19,12.32-.3,7.2-.57,10.06-.52,5.15-.77,6.74l-.27,1.82A2.35,2.35,0,0,1,343.32,250.42Z" style="fill:#fff"></path><path d="M223.45,255.71c.05.16-2.47.88-5.27,2.43s-4.78,3.27-4.88,3.15a14.49,14.49,0,0,1,4.62-3.61A14.68,14.68,0,0,1,223.45,255.71Z" style="fill:#fff"></path><path d="M229.53,193.68a7.23,7.23,0,0,1-1.29-1.93,22.14,22.14,0,0,1-2-5.24,22.55,22.55,0,0,1-.59-5.58,7.62,7.62,0,0,1,.28-2.3,42,42,0,0,0,.82,7.76A40.8,40.8,0,0,0,229.53,193.68Z" style="fill:#fff"></path><path d="M241.36,142.43c.11.11-1.19,1.35-2.46,3.13s-2.05,3.38-2.2,3.32a8.9,8.9,0,0,1,1.78-3.63A8.66,8.66,0,0,1,241.36,142.43Z" style="fill:#fff"></path><path d="M282,149.5s.08,0,.21.14a2.58,2.58,0,0,1,.48.55,3.84,3.84,0,0,1,.6,2.64,4,4,0,0,1-.7,1.8,3.34,3.34,0,0,1-1.85,1.26,4.1,4.1,0,0,1-2.49-.11,3.78,3.78,0,0,1-2.09-1.74l-.8-1.49,1.21,1.18a3.77,3.77,0,0,1,1,1.92,3.67,3.67,0,0,1-.64,3,3.86,3.86,0,0,1-2.45,1.49,4,4,0,0,1-2.55-.49,5.34,5.34,0,0,1-1.68-1.49,7.7,7.7,0,0,1-1.24-2.93,3.84,3.84,0,0,1-.14-1.15,6.78,6.78,0,0,1,.34,1.1,8.53,8.53,0,0,0,1.34,2.76,5,5,0,0,0,1.58,1.33,3.58,3.58,0,0,0,2.27.4,3.43,3.43,0,0,0,2.12-1.32,3.17,3.17,0,0,0,.54-2.6,3.28,3.28,0,0,0-.89-1.66l.41-.3a3.62,3.62,0,0,0,4,1.65,2.92,2.92,0,0,0,1.65-1.07,3.66,3.66,0,0,0,.68-1.6,3.85,3.85,0,0,0-.42-2.49C282.25,149.76,282,149.53,282,149.5Z" style="fill:#455a64"></path></g></svg>